<!DOCTYPE svg PUBLIC "-//W3C//DTD SVG 20010904//EN" "http://www.w3.org/TR/2001/REC-SVG-20010904/DTD/svg10.dtd">
<svg version="1.0" xmlns="http://www.w3.org/2000/svg" width="600px" height="600px" viewBox="0 0 8000 8000" preserveAspectRatio="xMidYMid meet">
<g id="layer101" fill="#18244f" stroke="none">
<path d="M0 4000 l0 -4000 4000 0 4000 0 0 4000 0 4000 -4000 0 -4000 0 0 -4000z"/>
</g>
<g id="layer102" fill="#626262" stroke="none">
<path d="M0 4000 l0 -4000 4000 0 4000 0 0 4000 0 4000 -4000 0 -4000 0 0 -4000z m4766 2534 c18 -9 44 -33 56 -53 21 -34 23 -47 23 -201 0 -154 -2 -167 -23 -201 -44 -72 0 -69 -882 -69 -857 0 -816 -3 -870 55 -25 26 -25 28 -25 215 0 207 0 208 70 251 29 18 68 19 823 19 709 0 798 -2 828 -16z m2280 -1380 c66 -49 69 -59 69 -249 0 -190 -3 -200 -69 -249 -27 -21 -35 -21 -831 -21 -800 0 -804 0 -832 21 -15 11 -38 36 -50 54 -22 31 -23 44 -23 192 0 170 5 191 53 236 13 13 37 27 53 32 16 5 383 8 816 7 777 -2 787 -2 814 -23z m-2941 -434 c174 -20 301 -63 348 -119 23 -28 27 -42 27 -96 l0 -63 -58 28 c-236 118 -740 113 -981 -10 l-43 -22 4 71 c3 56 8 75 27 95 87 93 402 147 676 116z m0 -270 c171 -20 298 -63 345 -116 27 -31 30 -42 30 -99 l0 -64 -50 25 c-118 59 -270 86 -485 87 -221 0 -375 -28 -499 -90 l-48 -25 4 71 c4 83 17 102 103 142 135 65 384 93 600 69z m-1562 -210 c54 -47 59 -69 55 -251 -3 -151 -5 -167 -25 -195 -48 -67 -8 -64 -874 -64 -770 0 -783 0 -825 21 -71 34 -84 74 -84 255 0 169 9 202 69 241 l34 23 808 0 808 0 34 -30z m1635 -70 c118 -20 219 -58 262 -99 39 -37 40 -40 40 -105 l0 -66 -47 23 c-124 62 -271 89 -493 89 -223 -1 -369 -27 -494 -89 l-48 -25 4 71 c4 83 17 102 103 142 63 31 160 55 271 69 83 11 314 5 402 -10z m18 -275 c120 -23 203 -55 246 -96 36 -34 38 -39 38 -101 0 -78 -18 -106 -91 -144 -233 -117 -791 -97 -949 35 -34 28 -35 30 -35 104 0 61 4 79 20 97 46 52 194 102 358 120 98 12 316 4 413 -15z m2855 -468 c62 -41 70 -71 67 -257 -3 -156 -4 -167 -27 -199 -45 -63 -12 -61 -876 -61 -864 0 -831 -2 -876 61 -23 32 -24 43 -27 199 -3 186 5 216 67 257 l34 23 802 0 802 0 34 -23z m-3797 -1221 c18 -7 44 -29 57 -47 23 -33 24 -40 24 -209 0 -169 -1 -176 -24 -209 -45 -63 -12 -61 -884 -61 l-794 0 -34 23 c-60 40 -69 72 -69 247 0 175 9 207 69 247 l34 23 794 0 c654 0 799 -2 827 -14z m2966 -5 c20 -10 44 -36 57 -61 21 -39 23 -57 23 -190 0 -133 -2 -151 -23 -190 -45 -85 13 -80 -887 -80 -776 0 -796 1 -828 20 -64 39 -72 65 -72 250 0 185 8 211 72 250 32 19 52 20 828 20 756 0 797 -1 830 -19z"/>
<path d="M3522 6288 l3 -73 44 0 c27 0 46 5 49 13 2 8 -8 12 -32 12 -25 0 -36 4 -36 15 0 10 10 15 31 15 38 0 35 24 -4 28 -41 5 -34 32 8 32 24 0 35 5 35 15 0 11 -12 15 -50 15 l-51 0 3 -72z"/>
<path d="M3644 6313 c-11 -27 -20 -51 -22 -55 -2 -5 3 -8 11 -8 9 0 21 16 28 37 l12 37 14 -37 c15 -36 33 -50 33 -24 -1 20 -38 97 -48 97 -5 0 -18 -21 -28 -47z"/>
<path d="M3741 6350 c-7 -4 -11 -18 -9 -31 2 -18 10 -25 31 -27 15 -2 25 -8 22 -13 -4 -5 -17 -6 -31 -3 -14 4 -24 2 -24 -5 0 -15 50 -26 69 -14 10 6 17 27 19 55 3 44 3 44 -31 45 -19 1 -40 -2 -46 -7z m49 -30 c0 -5 -6 -10 -14 -10 -8 0 -18 5 -21 10 -3 6 3 10 14 10 12 0 21 -4 21 -10z"/>
<path d="M3847 6353 c-11 -10 -8 -143 3 -143 6 0 10 26 10 59 0 44 4 60 16 65 8 3 12 10 9 16 -7 11 -28 13 -38 3z"/>
<path d="M3901 6347 c-16 -16 -15 -100 2 -95 6 3 13 21 15 42 3 29 7 36 20 34 12 -2 18 -15 20 -41 4 -49 22 -48 24 3 0 22 1 45 2 51 1 15 -68 21 -83 6z"/>
<path d="M4005 6343 c-21 -20 -2 -53 31 -53 14 0 23 -4 19 -10 -3 -6 -18 -7 -32 -4 -19 5 -24 3 -21 -7 2 -8 17 -16 33 -17 36 -5 55 19 55 68 0 34 -2 36 -35 37 -20 1 -42 -6 -50 -14z m55 -23 c0 -5 -9 -10 -20 -10 -11 0 -20 5 -20 10 0 6 9 10 20 10 11 0 20 -4 20 -10z"/>
<path d="M4117 6353 c-4 -3 -7 -24 -7 -45 0 -21 -4 -38 -9 -38 -5 0 -4 -11 2 -25 13 -27 37 -34 37 -11 0 8 6 17 13 20 10 5 10 7 0 12 -16 7 -17 61 -1 66 6 2 8 10 4 16 -8 13 -29 16 -39 5z"/>
<path d="M4170 6305 c0 -41 3 -56 13 -52 7 2 12 22 12 52 0 30 -5 50 -12 53 -10 3 -13 -12 -13 -53z"/>
<path d="M4227 6342 c-33 -36 -13 -92 31 -92 35 0 52 17 52 51 0 52 -51 77 -83 41z m60 -28 c3 -8 -2 -23 -11 -32 -16 -16 -18 -16 -31 1 -7 11 -11 25 -8 33 7 19 42 18 50 -2z"/>
<path d="M4330 6307 l0 -54 40 -1 c34 -2 41 2 46 22 8 32 1 81 -11 79 -5 -1 -11 -15 -13 -30 -2 -15 -5 -34 -8 -42 -8 -25 -34 9 -34 45 0 19 -4 34 -10 34 -5 0 -10 -24 -10 -53z"/>
<path d="M4170 6224 c0 -9 5 -14 12 -12 18 6 21 28 4 28 -9 0 -16 -7 -16 -16z"/>
<path d="M6538 4999 c-30 -17 -21 -30 17 -23 22 4 35 2 35 -5 0 -6 -7 -8 -15 -4 -23 8 -55 -26 -55 -57 0 -36 18 -50 63 -48 l37 1 0 58 c0 78 -31 108 -82 78z m52 -83 c0 -32 -20 -44 -36 -22 -16 23 -7 46 17 46 13 0 19 -7 19 -24z"/>
<path d="M5820 4895 c0 -42 4 -75 10 -75 5 0 19 18 30 40 11 22 22 40 25 40 2 0 14 -18 26 -40 13 -22 28 -39 33 -37 16 5 14 139 -1 145 -9 2 -13 -10 -13 -40 l-1 -43 -17 28 c-9 15 -22 27 -28 27 -6 0 -17 -12 -25 -27 l-14 -28 -3 43 c-5 71 -22 47 -22 -33z"/>
<path d="M5987 4952 c-10 -10 -17 -28 -17 -40 0 -47 66 -70 93 -32 l14 20 18 -20 c10 -11 29 -20 42 -20 17 0 23 -6 23 -21 0 -12 5 -19 13 -17 8 3 13 30 15 74 l3 70 -40 1 c-31 2 -44 -3 -55 -18 l-14 -21 -21 21 c-26 26 -53 27 -74 3z m60 -28 c7 -19 -20 -49 -36 -40 -12 8 -15 39 -4 49 12 12 33 7 40 -9z m111 -8 c4 -21 -14 -37 -35 -29 -14 5 -18 35 -6 47 12 12 38 1 41 -18z"/>
<path d="M6217 4952 c-10 -10 -17 -28 -17 -40 0 -53 73 -69 97 -22 12 24 12 25 -27 28 -22 2 -40 8 -40 14 0 6 13 8 35 4 38 -8 48 7 16 24 -28 15 -46 12 -64 -8z m50 -63 c-14 -8 -22 -8 -30 0 -8 8 -3 11 19 11 25 -1 27 -2 11 -11z"/>
<path d="M6326 4963 c-10 -11 -7 -143 4 -143 6 0 10 26 10 59 0 43 4 60 15 65 12 4 15 -4 15 -40 0 -32 4 -44 13 -41 7 2 12 22 12 53 0 47 -1 49 -31 51 -17 1 -34 0 -38 -4z"/>
<path d="M6417 4963 c-4 -3 -7 -28 -7 -53 l0 -48 40 0 c46 -1 63 20 58 70 -5 48 -28 48 -28 1 0 -22 -3 -43 -7 -46 -13 -13 -33 16 -33 49 0 32 -9 42 -23 27z"/>
<path d="M6370 4834 c0 -17 22 -14 28 4 2 7 -3 12 -12 12 -9 0 -16 -7 -16 -16z"/>
<path d="M1350 4077 l0 -74 40 -1 c42 -2 60 15 60 57 0 26 -29 54 -51 48 -12 -3 -19 1 -21 16 -2 11 -9 22 -15 25 -10 3 -13 -16 -13 -71z m73 -11 c7 -19 -17 -51 -31 -42 -20 12 -15 56 7 56 10 0 21 -6 24 -14z"/>
<path d="M1640 4138 c0 -8 5 -19 10 -24 7 -7 4 -25 -10 -58 -24 -56 -24 -56 -7 -56 7 0 19 17 26 37 l14 37 14 -37 c17 -43 39 -51 28 -10 -17 69 -75 155 -75 111z"/>
<path d="M1110 4035 c0 -66 2 -75 19 -75 39 0 81 22 87 46 7 28 16 30 34 9 17 -20 53 -19 73 3 27 30 20 42 -24 42 -27 0 -38 4 -33 11 3 6 19 9 35 5 32 -6 38 4 14 24 -24 20 -65 3 -79 -32 l-13 -30 -7 26 c-7 28 -39 46 -82 46 -23 0 -24 -2 -24 -75z m83 23 c17 -26 -7 -68 -38 -68 -23 0 -25 4 -25 46 0 43 1 45 26 42 15 -2 32 -11 37 -20z m112 -28 c-3 -5 -12 -10 -20 -10 -8 0 -17 5 -20 10 -4 6 5 10 20 10 15 0 24 -4 20 -10z"/>
<path d="M1470 4090 c-14 -27 -9 -122 8 -128 9 -3 12 13 12 57 0 34 4 61 10 61 6 0 10 7 10 15 0 22 -28 18 -40 -5z"/>
<path d="M1530 4090 c-25 -25 -26 -52 -2 -73 24 -22 55 -21 75 1 21 23 21 41 1 70 -19 27 -48 28 -74 2z m58 -34 c4 -21 -14 -37 -35 -29 -14 5 -18 35 -6 47 12 12 38 1 41 -18z"/>
<path d="M1736 4103 c-3 -3 -6 -28 -6 -54 l0 -49 70 2 c79 1 94 13 88 70 -5 48 -28 48 -28 1 0 -22 -3 -43 -7 -46 -13 -13 -33 16 -33 49 0 19 -4 34 -10 34 -5 0 -10 -13 -10 -29 0 -41 -9 -61 -26 -54 -8 3 -14 19 -14 38 0 33 -11 51 -24 38z"/>
<path d="M1916 4094 c-19 -18 -21 -65 -4 -82 7 -7 24 -12 38 -12 30 0 50 17 50 42 0 14 -8 18 -35 18 -19 0 -35 5 -35 11 0 7 12 9 35 5 19 -4 35 -5 35 -2 0 12 -33 36 -50 36 -10 0 -26 -7 -34 -16z m46 -66 c-9 -9 -15 -9 -24 0 -9 9 -7 12 12 12 19 0 21 -3 12 -12z"/>
<path d="M2017 4103 c-4 -3 -7 -28 -7 -53 l0 -48 40 0 c46 -1 63 20 58 70 -5 48 -28 48 -28 1 0 -22 -3 -43 -7 -46 -13 -13 -33 16 -33 49 0 32 -9 42 -23 27z"/>
<path d="M2137 4104 c-4 -4 -7 -25 -7 -46 0 -21 -4 -38 -9 -38 -5 0 -4 -11 2 -25 12 -26 27 -33 27 -14 0 7 8 18 18 25 16 13 16 13 0 14 -24 0 -26 60 -2 60 9 0 14 6 12 13 -5 14 -31 21 -41 11z"/>
<path d="M6032 3308 c3 -79 -2 -74 73 -69 9 1 22 16 30 34 8 17 14 27 15 20 0 -6 12 -16 28 -22 l27 -11 -27 5 c-21 4 -28 1 -28 -10 0 -8 4 -15 9 -15 5 0 16 -3 24 -6 25 -9 57 31 57 71 0 35 0 35 -44 35 -33 0 -46 -5 -51 -17 -6 -17 -7 -17 -16 0 -6 10 -22 17 -39 17 -23 0 -30 5 -30 20 0 11 -7 20 -15 20 -13 0 -15 -12 -13 -72z m73 -18 c0 -16 -6 -26 -18 -28 -19 -4 -32 20 -23 44 9 25 41 13 41 -16z m100 20 c3 -5 -3 -10 -14 -10 -12 0 -21 5 -21 10 0 6 6 10 14 10 8 0 18 -4 21 -10z"/>
<path d="M5740 3270 l0 -70 39 0 c28 0 44 6 53 19 9 12 24 18 47 17 19 0 36 5 39 12 2 6 -3 12 -11 12 -17 0 -27 21 -27 56 0 15 -6 24 -15 24 -11 0 -15 -11 -15 -40 l0 -40 -20 20 c-11 11 -29 20 -40 20 -13 0 -20 7 -20 20 0 11 -7 20 -15 20 -12 0 -15 -14 -15 -70z m75 -20 c0 -8 -10 -16 -22 -18 -18 -3 -23 2 -23 18 0 16 5 21 23 18 12 -2 22 -10 22 -18z"/>
<path d="M5932 3328 c-21 -21 -14 -66 13 -84 23 -15 27 -15 50 0 14 9 25 25 25 36 0 16 -7 20 -36 20 -22 0 -33 4 -29 11 4 6 20 7 38 3 28 -6 30 -5 18 10 -16 19 -62 21 -79 4z m63 -58 c-3 -5 -15 -10 -26 -10 -10 0 -19 5 -19 10 0 6 12 10 26 10 14 0 23 -4 19 -10z"/>
<path d="M6252 3288 c3 -48 5 -51 31 -52 29 -2 37 18 12 28 -9 3 -15 19 -15 41 0 25 -4 35 -16 35 -12 0 -14 -10 -12 -52z"/>
<path d="M6316 3325 c-9 -25 4 -44 38 -55 29 -9 29 -10 3 -6 -37 5 -45 -11 -13 -26 37 -16 66 12 66 64 l0 38 -44 0 c-30 0 -46 -5 -50 -15z m59 -15 c3 -5 -3 -10 -14 -10 -12 0 -21 5 -21 10 0 6 6 10 14 10 8 0 18 -4 21 -10z"/>
<path d="M6430 3301 c0 -22 -4 -42 -9 -45 -5 -4 -4 -17 2 -31 12 -26 27 -33 27 -14 0 7 8 18 18 25 16 12 16 13 0 19 -23 9 -25 65 -3 65 8 0 15 5 15 10 0 6 -11 10 -25 10 -22 0 -25 -4 -25 -39z"/>
<path d="M6491 3270 c1 -46 6 -70 13 -70 8 0 13 24 14 70 2 58 0 70 -13 70 -13 0 -15 -13 -14 -70z"/>
<path d="M6542 3328 c-21 -21 -14 -66 13 -84 23 -15 27 -15 50 0 17 11 25 26 25 44 0 35 -16 52 -50 52 -14 0 -31 -5 -38 -12z m58 -23 c10 -12 10 -18 0 -30 -16 -20 -36 -19 -44 1 -6 16 9 44 24 44 4 0 13 -7 20 -15z"/>
<path d="M6642 3288 l3 -52 39 1 c44 1 56 14 56 66 0 26 -4 37 -15 37 -11 0 -15 -11 -15 -41 0 -33 -3 -40 -17 -37 -13 2 -19 14 -21 41 -2 25 -8 37 -18 37 -12 0 -14 -11 -12 -52z"/>
<path d="M6050 3055 c0 -83 4 -87 68 -64 39 14 55 53 37 96 -13 30 -37 43 -82 43 -22 0 -23 -4 -23 -75z m83 23 c17 -26 -7 -68 -38 -68 -23 0 -25 4 -25 46 0 43 1 45 26 42 15 -2 32 -11 37 -20z"/>
<path d="M6179 3114 c-16 -20 -1 -48 30 -52 11 -2 21 -8 21 -14 0 -6 -10 -8 -26 -4 -19 5 -25 3 -22 -6 6 -18 67 -23 72 -6 2 7 7 31 10 53 l6 41 -39 1 c-25 1 -44 -4 -52 -13z m56 -24 c3 -5 -3 -10 -14 -10 -12 0 -21 5 -21 10 0 6 6 10 14 10 8 0 18 -4 21 -10z"/>
<path d="M6292 3118 c-9 -12 -17 -71 -13 -110 1 -21 31 -24 31 -4 0 8 6 17 13 20 10 5 10 7 0 12 -19 8 -17 64 2 64 8 0 15 -7 15 -15 0 -9 12 -18 30 -21 17 -4 30 -11 30 -16 0 -6 -11 -7 -24 -4 -28 7 -45 -9 -20 -18 47 -18 70 0 75 58 4 37 3 39 -30 42 -19 2 -40 -1 -47 -6 -8 -8 -14 -8 -19 0 -8 14 -30 13 -43 -2z m108 -28 c0 -5 -7 -10 -15 -10 -8 0 -15 5 -15 10 0 6 7 10 15 10 8 0 15 -4 15 -10z"/>
<path d="M3001 2151 c-7 -5 -11 -14 -7 -20 5 -7 12 -7 26 1 15 10 22 10 32 0 9 -9 7 -12 -13 -12 -32 0 -49 -17 -49 -51 0 -34 21 -51 63 -53 l32 -1 3 58 c2 35 -2 65 -9 73 -13 16 -56 18 -78 5z m54 -82 c0 -28 -29 -38 -39 -13 -7 19 11 47 28 41 6 -2 11 -14 11 -28z"/>
<path d="M1820 2101 c-13 -25 -13 -121 0 -121 6 0 10 19 10 43 0 97 62 104 68 8 2 -36 7 -51 18 -51 20 0 19 88 -2 118 -20 29 -79 31 -94 3z"/>
<path d="M1950 2067 l0 -52 36 1 c43 2 54 16 54 67 0 26 -4 37 -15 37 -11 0 -15 -11 -15 -41 0 -33 -3 -40 -17 -37 -13 2 -19 14 -21 41 -5 56 -22 44 -22 -16z"/>
<path d="M2060 2101 c-5 -11 -10 -29 -10 -40 0 -25 41 -54 64 -45 12 4 16 0 16 -15 0 -12 5 -21 10 -21 6 0 10 24 10 54 0 30 3 61 6 70 10 26 -82 22 -96 -3z m65 -31 c0 -29 -32 -41 -41 -16 -9 24 4 48 23 44 12 -2 18 -12 18 -28z"/>
<path d="M2182 2108 c-21 -21 -14 -66 13 -84 23 -15 27 -15 50 0 14 9 25 25 25 36 0 16 -7 20 -35 20 -19 0 -35 5 -35 11 0 8 12 9 37 4 33 -6 35 -5 24 9 -16 19 -62 21 -79 4z m58 -58 c0 -5 -9 -10 -19 -10 -11 0 -23 5 -26 10 -4 6 5 10 19 10 14 0 26 -4 26 -10z"/>
<path d="M2282 2068 c3 -48 5 -51 31 -52 29 -2 37 18 12 28 -9 3 -15 19 -15 41 0 25 -4 35 -16 35 -12 0 -14 -10 -12 -52z"/>
<path d="M2347 2114 c-13 -13 4 -24 29 -18 13 3 24 2 24 -4 0 -5 -11 -13 -25 -16 -16 -4 -25 -13 -25 -26 0 -26 34 -44 58 -31 21 11 42 -3 42 -26 0 -7 5 -13 10 -13 6 0 10 6 10 14 0 8 8 17 18 21 16 6 16 7 0 19 -22 16 -24 66 -3 66 8 0 15 5 15 10 0 6 -11 10 -25 10 -22 0 -25 -4 -25 -39 0 -38 -13 -61 -24 -43 -3 5 -18 8 -33 6 -27 -4 -27 -3 5 11 25 12 33 21 30 38 -2 17 -11 23 -38 25 -20 2 -39 0 -43 -4z"/>
<path d="M2506 2104 c-11 -27 -7 -35 27 -50 29 -14 30 -15 5 -9 -34 7 -40 -20 -6 -28 33 -9 58 10 58 43 0 15 3 35 6 44 5 13 -2 16 -39 16 -32 0 -47 -5 -51 -16z m59 -14 c3 -5 -3 -10 -14 -10 -12 0 -21 5 -21 10 0 6 6 10 14 10 8 0 18 -4 21 -10z"/>
<path d="M2612 2068 c3 -49 4 -51 33 -53 49 -3 55 3 55 56 0 57 -17 66 -22 12 -2 -26 -8 -38 -18 -38 -10 0 -16 12 -18 38 -2 25 -8 37 -18 37 -12 0 -14 -11 -12 -52z"/>
<path d="M2732 2108 c-14 -14 -16 -57 -3 -77 5 -7 20 -13 35 -13 19 0 26 -6 26 -19 0 -11 7 -19 15 -19 12 0 15 14 15 70 l0 70 -38 0 c-21 0 -43 -5 -50 -12z m53 -39 c0 -28 -29 -38 -39 -13 -7 19 11 47 28 41 6 -2 11 -14 11 -28z"/>
<path d="M2840 2050 c0 -40 4 -70 10 -70 6 0 10 30 10 70 0 40 -4 70 -10 70 -6 0 -10 -30 -10 -70z"/>
<path d="M2882 2069 c3 -50 4 -52 34 -54 45 -3 53 5 60 58 6 39 4 47 -9 47 -11 0 -17 -11 -19 -37 -2 -26 -8 -38 -18 -38 -10 0 -16 12 -18 38 -2 25 -8 37 -18 37 -12 0 -14 -11 -12 -51z"/>
<path d="M2044 1896 c-3 -7 -4 -40 -2 -72 l3 -59 43 1 c23 0 45 4 49 7 12 12 13 110 2 124 -15 17 -88 17 -95 -1z m77 -31 c0 -5 -12 -11 -26 -13 -18 -2 -25 1 -25 13 0 12 7 15 25 13 14 -2 26 -7 26 -13z m-1 -60 c0 -9 -9 -15 -25 -15 -16 0 -25 6 -25 15 0 9 9 15 25 15 16 0 25 -6 25 -15z"/>
<path d="M2183 1903 c-16 -6 -18 -103 -3 -103 6 0 10 18 10 40 0 33 3 40 20 40 17 0 20 -7 20 -40 0 -29 4 -40 15 -40 11 0 15 12 15 53 0 52 0 52 -33 53 -17 1 -38 -1 -44 -3z"/>
<path d="M2280 1895 c-13 -16 -9 -18 30 -16 24 2 23 1 -8 -18 -28 -18 -31 -24 -22 -41 11 -20 35 -25 64 -14 25 9 8 25 -20 18 -13 -3 -24 -2 -24 4 0 5 11 13 25 16 14 4 28 13 32 21 13 37 -51 61 -77 30z"/>
<path d="M2376 1903 c-3 -3 -6 -28 -6 -55 0 -36 4 -48 15 -48 11 0 15 12 15 49 0 47 -9 68 -24 54z"/>
<path d="M2414 1896 c-3 -8 -4 -31 -2 -52 3 -37 5 -39 39 -41 45 -4 61 14 57 62 -4 42 -22 48 -26 8 -2 -15 -5 -34 -8 -42 -8 -25 -34 9 -34 45 0 34 -16 46 -26 20z"/>
<path d="M2537 1892 c-10 -10 -17 -28 -17 -40 0 -53 73 -69 97 -22 12 24 12 25 -27 28 -22 2 -40 8 -40 14 0 6 13 8 35 4 38 -8 48 7 16 24 -28 15 -46 12 -64 -8z m45 -64 c-9 -9 -15 -9 -24 0 -9 9 -7 12 12 12 19 0 21 -3 12 -12z"/>
<path d="M2641 1901 c-21 -13 -5 -29 26 -25 27 4 27 4 -4 -11 -35 -16 -42 -35 -19 -55 18 -14 58 -10 64 8 3 9 -3 11 -22 6 -16 -4 -26 -2 -26 5 0 6 6 11 13 11 7 0 21 6 31 13 40 29 -20 75 -63 48z"/>
<path d="M2731 1901 c-21 -14 -5 -29 26 -24 l28 5 -33 -21 c-28 -18 -31 -24 -22 -41 11 -20 35 -25 64 -14 25 9 8 25 -20 18 -14 -4 -24 -2 -24 5 0 6 6 11 13 11 7 0 21 6 31 13 40 29 -20 75 -63 48z"/>
<path d="M2370 1775 c0 -8 7 -15 15 -15 8 0 15 7 15 15 0 8 -7 15 -15 15 -8 0 -15 -7 -15 -15z"/>
<path d="M5941 2137 c-16 -20 -3 -27 25 -15 18 9 28 8 36 0 9 -9 5 -12 -20 -12 -49 0 -69 -53 -33 -89 13 -13 30 -18 52 -16 l34 3 0 61 c0 44 -5 65 -15 71 -22 14 -66 12 -79 -3z m64 -77 c0 -29 -32 -41 -41 -16 -9 24 4 48 23 44 12 -2 18 -12 18 -28z"/>
<path d="M5312 2109 c-33 -12 -27 -30 8 -22 19 3 30 1 30 -6 0 -6 -8 -11 -19 -11 -24 0 -43 -23 -35 -43 8 -22 30 -28 59 -17 23 9 27 7 36 -18 l10 -27 19 25 c22 28 25 40 10 40 -5 0 -10 14 -10 30 0 20 5 30 15 30 8 0 15 -7 15 -15 0 -9 15 -23 33 -31 31 -14 31 -15 4 -11 -15 2 -30 1 -33 -4 -5 -8 27 -29 45 -29 22 0 41 33 41 71 l0 39 -72 -2 -73 -3 -3 -36 c-3 -33 -5 -36 -38 -37 -20 -1 -32 3 -29 8 3 6 12 10 19 10 20 0 37 25 30 43 -7 19 -34 26 -62 16z m198 -29 c0 -5 -9 -10 -21 -10 -11 0 -17 5 -14 10 3 6 13 10 21 10 8 0 14 -4 14 -10z"/>
<path d="M4766 2088 c-21 -30 -22 -118 -2 -118 11 0 16 15 18 51 2 36 8 55 20 63 26 16 40 -4 46 -63 6 -68 22 -65 22 3 0 63 -16 86 -60 86 -18 0 -34 -8 -44 -22z"/>
<path d="M4892 2058 c3 -49 4 -51 33 -53 43 -3 55 11 55 61 0 54 -18 59 -22 7 -2 -26 -8 -38 -18 -38 -10 0 -16 12 -18 38 -2 25 -8 37 -18 37 -12 0 -14 -11 -12 -52z"/>
<path d="M5012 2097 c-14 -17 -17 -38 -8 -64 7 -21 22 -28 54 -24 6 1 12 -7 12 -19 0 -11 7 -20 15 -20 12 0 15 14 15 68 l0 69 -39 1 c-21 1 -43 -4 -49 -11z m53 -38 c0 -15 -7 -25 -18 -27 -22 -4 -33 24 -17 43 18 21 35 13 35 -16z"/>
<path d="M5126 2095 c-33 -33 -9 -87 39 -87 16 0 34 7 42 18 15 20 17 44 4 44 -5 0 -8 8 -7 18 2 24 -56 29 -78 7z m59 -15 c4 -6 -5 -10 -20 -10 -15 0 -24 4 -20 10 3 6 12 10 20 10 8 0 17 -4 20 -10z m0 -40 c-3 -5 -12 -10 -20 -10 -8 0 -17 5 -20 10 -4 6 5 10 20 10 15 0 24 -4 20 -10z"/>
<path d="M5230 2055 c0 -55 0 -55 28 -49 37 9 39 12 14 30 -14 10 -22 26 -22 45 0 16 -4 29 -10 29 -5 0 -10 -25 -10 -55z"/>
<path d="M5560 2056 l0 -54 35 3 c49 5 55 11 55 61 0 32 -4 44 -15 44 -11 0 -15 -11 -15 -40 0 -28 -4 -40 -14 -40 -16 0 -26 21 -26 56 0 13 -4 24 -10 24 -5 0 -10 -24 -10 -54z"/>
<path d="M5670 2091 c-15 -29 -12 -49 11 -72 13 -13 27 -18 40 -14 15 5 19 2 19 -14 0 -12 7 -21 15 -21 12 0 15 14 15 70 l0 70 -45 0 c-34 0 -47 -5 -55 -19z m65 -31 c0 -29 -32 -41 -41 -16 -9 24 4 48 23 44 12 -2 18 -12 18 -28z"/>
<path d="M5782 2040 c1 -46 6 -70 14 -70 7 0 12 24 13 70 1 57 -1 70 -14 70 -13 0 -15 -12 -13 -70z"/>
<path d="M5830 2056 l0 -54 35 3 c49 5 55 11 55 61 0 32 -4 44 -15 44 -11 0 -15 -11 -15 -40 0 -22 -4 -40 -8 -40 -17 0 -32 25 -32 52 0 15 -4 28 -10 28 -5 0 -10 -24 -10 -54z"/>
<path d="M5180 1825 c0 -83 4 -87 68 -64 39 14 55 53 37 96 -13 30 -37 43 -82 43 -22 0 -23 -4 -23 -75z m83 23 c17 -26 -7 -68 -38 -68 -23 0 -25 4 -25 46 0 43 1 45 26 42 15 -2 32 -11 37 -20z"/>
<path d="M5309 1884 c-16 -20 -1 -48 30 -52 11 -2 21 -8 21 -14 0 -6 -10 -8 -26 -4 -19 5 -25 3 -22 -6 6 -18 67 -23 72 -6 2 7 7 31 10 53 l6 41 -39 1 c-25 1 -44 -4 -52 -13z m56 -24 c3 -5 -3 -10 -14 -10 -12 0 -21 5 -21 10 0 6 6 10 14 10 8 0 18 -4 21 -10z"/>
<path d="M5422 1888 c-9 -12 -17 -71 -13 -110 1 -21 31 -24 31 -4 0 8 6 17 13 20 10 5 10 7 0 12 -19 8 -17 64 2 64 8 0 15 -7 15 -15 0 -9 12 -18 30 -21 17 -4 30 -11 30 -16 0 -6 -11 -7 -24 -4 -28 7 -45 -9 -20 -18 47 -18 70 0 75 58 4 37 3 39 -30 42 -19 2 -40 -1 -47 -6 -8 -8 -14 -8 -19 0 -8 14 -30 13 -43 -2z m108 -28 c0 -5 -7 -10 -15 -10 -8 0 -15 5 -15 10 0 6 7 10 15 10 8 0 15 -4 15 -10z"/>
</g>
<g id="layer103" fill="#cecfd0" stroke="none">
<path d="M0 4000 l0 -4000 4000 0 4000 0 0 4000 0 4000 -4000 0 -4000 0 0 -4000z m4164 3868 c3 -24 8 -81 11 -127 3 -47 8 -88 11 -93 3 -4 26 -8 52 -8 65 0 271 -26 400 -51 484 -92 937 -278 1347 -550 223 -149 352 -255 556 -459 310 -309 507 -583 698 -970 211 -427 341 -900 368 -1335 l6 -107 104 -216 c56 -118 103 -217 103 -220 0 -3 -47 -2 -104 2 l-104 7 -7 -68 c-46 -467 -162 -878 -366 -1293 -176 -360 -382 -651 -664 -939 -604 -617 -1405 -1004 -2246 -1083 l-134 -12 -204 -123 c-112 -68 -205 -123 -206 -123 -1 0 -5 52 -7 116 -4 83 -9 119 -19 125 -8 5 -37 9 -64 9 -120 0 -402 44 -611 95 -515 126 -1021 380 -1441 723 -719 588 -1200 1457 -1308 2362 -8 74 -18 149 -21 165 -2 17 -60 116 -128 220 -136 210 -135 203 -36 204 30 1 79 4 108 7 l52 7 0 51 c0 158 51 493 110 720 264 1035 975 1907 1935 2376 392 191 827 315 1230 351 66 6 129 13 140 15 11 2 110 62 220 133 110 71 203 130 207 130 4 1 9 -18 12 -41z"/>
<path d="M3660 7543 c-301 -23 -693 -114 -981 -228 -765 -301 -1391 -838 -1802 -1545 -263 -454 -435 -1015 -463 -1514 l-7 -119 96 7 c54 3 97 4 97 0 0 -3 -42 -97 -94 -210 l-95 -204 10 -98 c41 -413 169 -853 359 -1233 359 -714 981 -1314 1702 -1641 392 -177 743 -267 1222 -313 l69 -7 -7 101 c-4 56 -5 101 -2 101 3 0 96 -45 208 -100 l203 -100 105 10 c826 79 1574 424 2164 1000 540 527 905 1218 1025 1945 26 155 45 321 38 338 -4 10 -37 16 -113 21 -60 4 -110 8 -112 10 -2 2 51 91 118 197 l121 192 -6 56 c-20 214 -29 290 -46 391 -118 696 -459 1362 -958 1874 -325 332 -666 573 -1077 760 -382 174 -730 265 -1193 310 l-54 5 6 -89 c3 -50 5 -90 3 -90 -1 0 -89 41 -194 90 -206 96 -198 94 -342 83z m1109 -1008 c72 -42 76 -56 76 -253 0 -169 -1 -178 -23 -210 -51 -71 2 -67 -882 -67 -780 0 -796 0 -830 20 -21 12 -44 39 -57 65 -21 40 -23 58 -23 190 0 121 4 152 19 187 21 45 53 71 104 83 17 5 381 7 807 7 756 -2 776 -3 809 -22z m2271 -1374 c19 -10 45 -33 58 -51 21 -31 22 -43 22 -205 0 -162 -1 -174 -22 -205 -13 -18 -39 -41 -58 -51 -33 -18 -75 -19 -825 -19 -881 0 -834 -4 -882 69 -22 32 -23 44 -23 206 0 162 1 174 23 206 48 73 1 69 882 69 750 0 792 -1 825 -19z m-3092 -174 c19 1 22 -4 22 -36 0 -70 -31 -101 -86 -87 -37 10 -28 26 13 23 29 -2 38 2 41 17 3 12 0 16 -8 11 -18 -11 -58 3 -70 25 -14 25 22 66 48 54 9 -4 27 -7 40 -7z m221 1 c27 1 27 0 21 -54 -8 -67 -33 -88 -84 -68 -27 10 -18 24 12 18 19 -4 32 -1 41 10 12 14 10 16 -13 16 -41 0 -66 17 -66 46 0 25 34 48 54 36 5 -3 21 -5 35 -4z m-362 -20 c17 -16 23 -32 23 -65 0 -60 -25 -83 -90 -83 l-50 0 0 85 0 85 47 0 c34 0 53 -6 70 -22z m258 12 c-3 -5 -13 -10 -21 -10 -10 0 -14 -12 -14 -45 0 -33 4 -45 15 -45 8 0 15 -4 15 -10 0 -5 -7 -10 -15 -10 -8 0 -15 -9 -15 -20 0 -11 -4 -20 -10 -20 -5 0 -10 9 -10 19 0 11 -6 22 -12 25 -10 5 -10 7 0 12 7 3 12 26 12 60 0 54 0 54 31 54 17 0 28 -4 24 -10z m183 -279 c103 -26 185 -64 212 -98 16 -20 20 -41 20 -94 0 -38 -3 -69 -7 -69 -5 0 -17 7 -27 15 -10 8 -53 26 -95 40 -258 85 -693 70 -893 -31 -26 -13 -50 -24 -53 -24 -3 0 -5 31 -5 69 0 80 16 103 97 144 114 58 238 77 478 72 151 -2 207 -8 273 -24z m-23 -265 c106 -24 183 -56 221 -91 32 -31 34 -36 34 -104 0 -39 -2 -71 -4 -71 -3 0 -20 9 -38 19 -104 61 -335 97 -568 88 -177 -7 -300 -31 -398 -77 -35 -17 -66 -30 -68 -30 -2 0 -4 31 -4 69 0 59 3 72 25 95 44 48 166 93 311 116 89 13 406 5 489 -14z m-1708 -176 c75 -33 83 -58 83 -255 0 -190 -7 -215 -72 -255 -32 -19 -52 -20 -833 -20 -781 0 -801 1 -833 20 -18 11 -41 34 -52 52 -19 30 -20 47 -18 208 3 198 8 212 83 250 39 20 57 20 820 20 748 0 782 -1 822 -20z m1645 -85 c154 -23 281 -74 308 -124 11 -22 14 -155 3 -149 -164 82 -347 115 -597 105 -176 -7 -308 -32 -403 -76 -36 -17 -67 -31 -69 -31 -2 0 -4 31 -4 69 0 59 3 72 25 95 45 48 169 94 311 115 96 14 322 12 426 -4z m-27 -265 c158 -23 296 -74 329 -122 11 -15 16 -45 16 -96 0 -65 -3 -76 -25 -98 -36 -36 -118 -71 -226 -96 -134 -31 -429 -32 -570 -1 -113 25 -198 63 -234 104 -21 26 -25 40 -25 98 0 59 3 72 25 95 45 48 169 94 311 115 83 12 316 12 399 1z m2875 -460 c20 -5 51 -26 70 -45 l35 -36 3 -177 c2 -163 1 -180 -18 -210 -11 -18 -34 -41 -52 -52 -32 -19 -52 -20 -833 -20 -781 0 -801 1 -833 20 -18 11 -41 34 -52 52 -19 30 -20 47 -18 210 l3 177 35 36 c19 19 48 40 65 44 42 13 1551 13 1595 1z m-3743 -1246 c15 -11 38 -36 51 -54 21 -31 22 -43 22 -200 0 -157 -1 -169 -22 -200 -13 -18 -36 -43 -51 -54 -28 -21 -35 -21 -785 -24 -416 -2 -781 0 -811 3 -44 6 -61 14 -95 45 l-41 39 0 190 0 191 36 36 c20 20 52 40 70 44 19 5 386 8 816 7 776 -2 782 -2 810 -23z m2952 1 c72 -42 76 -56 76 -255 0 -199 -4 -213 -76 -255 -33 -20 -52 -20 -829 -20 -777 0 -796 0 -828 20 -18 11 -43 36 -55 55 -20 32 -22 48 -22 200 0 153 2 168 22 200 24 39 53 60 98 71 17 4 379 6 805 6 756 -2 776 -3 809 -22z"/>
<path d="M3520 6285 l0 -65 45 0 c25 0 45 5 45 10 0 6 -16 10 -36 10 -28 0 -35 3 -32 17 2 10 16 21 33 24 l30 7 -33 1 c-29 1 -33 4 -30 24 2 17 11 23 43 28 39 6 39 6 -12 8 l-53 1 0 -65z"/>
<path d="M3644 6305 c-21 -56 -11 -73 13 -19 l16 39 15 -37 c8 -21 19 -38 24 -38 6 0 8 6 5 13 -2 6 -10 29 -18 50 -7 20 -18 37 -25 37 -7 0 -20 -20 -30 -45z"/>
<path d="M3734 6335 c-8 -20 13 -45 37 -45 11 0 19 -5 19 -11 0 -7 -10 -9 -25 -6 -16 3 -24 0 -22 -7 4 -13 38 -19 53 -9 6 5 13 27 17 51 l5 42 -39 0 c-26 0 -42 -5 -45 -15z m56 -10 c11 -13 8 -15 -14 -15 -25 0 -33 10 -19 23 10 11 19 8 33 -8z"/>
<path d="M3840 6285 c0 -37 4 -65 10 -65 6 0 10 24 10 53 0 29 5 58 12 65 9 9 7 12 -10 12 -20 0 -22 -5 -22 -65z"/>
<path d="M3896 6334 c-10 -25 -7 -84 4 -84 6 0 10 18 10 39 0 22 5 43 10 46 19 12 40 -16 40 -51 0 -19 5 -34 10 -34 6 0 10 23 10 50 l0 50 -39 0 c-26 0 -41 -5 -45 -16z"/>
<path d="M4007 6343 c-18 -17 -6 -44 23 -49 17 -4 30 -11 30 -16 0 -6 -11 -8 -25 -6 -31 6 -43 -8 -15 -17 35 -11 60 3 60 35 0 16 3 35 6 44 5 13 -1 16 -33 16 -22 0 -43 -3 -46 -7z m53 -18 c11 -13 8 -15 -14 -15 -16 0 -26 5 -26 15 0 8 6 15 14 15 7 0 19 -7 26 -15z"/>
<path d="M4117 6343 c-5 -9 -11 -78 -8 -105 1 -21 21 -24 21 -4 0 8 6 17 13 20 10 5 10 7 0 12 -19 8 -17 64 2 64 8 0 15 5 15 10 0 12 -37 14 -43 3z"/>
<path d="M4170 6306 c0 -25 5 -48 10 -51 6 -4 10 13 10 44 0 28 -4 51 -10 51 -5 0 -10 -20 -10 -44z"/>
<path d="M4220 6331 c-15 -28 -12 -46 8 -64 24 -22 45 -21 65 1 20 22 22 53 5 70 -19 19 -66 15 -78 -7z m60 -6 c17 -20 8 -50 -14 -50 -27 0 -43 29 -27 49 17 20 25 20 41 1z"/>
<path d="M4330 6303 l0 -48 38 0 37 0 2 50 c1 47 1 48 -6 12 -9 -44 -15 -51 -36 -44 -9 4 -15 19 -15 42 0 19 -4 35 -10 35 -5 0 -10 -21 -10 -47z"/>
<path d="M4170 6230 c0 -5 5 -10 10 -10 6 0 10 5 10 10 0 6 -4 10 -10 10 -5 0 -10 -4 -10 -10z"/>
<path d="M6537 4993 c-15 -14 -6 -23 14 -13 15 9 24 8 36 -2 14 -11 12 -14 -18 -18 -25 -4 -36 -12 -43 -32 -13 -38 13 -66 60 -65 34 1 34 1 34 50 0 63 -13 87 -49 87 -15 0 -31 -3 -34 -7z m56 -65 c14 -21 2 -48 -22 -48 -24 0 -37 36 -20 56 14 17 28 14 42 -8z"/>
<path d="M5820 4895 c0 -36 4 -65 9 -65 5 0 20 19 34 42 l25 42 21 -42 c12 -23 26 -42 31 -42 6 0 10 29 10 65 0 37 -4 65 -10 65 -5 0 -10 -19 -10 -42 l0 -43 -20 33 c-11 17 -22 32 -24 32 -2 0 -13 -15 -25 -32 l-21 -33 0 43 c0 23 -4 42 -10 42 -6 0 -10 -28 -10 -65z"/>
<path d="M5981 4939 c-11 -31 -3 -57 21 -70 27 -15 57 -2 64 28 9 36 -7 57 -45 61 -25 3 -33 -1 -40 -19z m53 5 c21 -8 21 -53 0 -61 -8 -3 -22 1 -31 9 -12 12 -13 20 -4 37 13 23 13 23 35 15z"/>
<path d="M6102 4948 c-17 -17 -15 -63 3 -78 8 -7 24 -10 35 -7 15 4 20 0 20 -14 0 -10 4 -19 9 -19 5 0 11 29 13 65 l3 65 -35 0 c-20 0 -41 -5 -48 -12z m56 -37 c-4 -35 -41 -37 -46 -2 -4 26 13 42 35 34 8 -3 13 -16 11 -32z"/>
<path d="M6209 4936 c-23 -51 37 -99 75 -60 29 28 20 44 -26 44 -40 0 -41 1 -25 17 15 15 20 16 38 5 18 -11 20 -11 17 0 -3 7 -19 14 -36 16 -26 3 -34 -1 -43 -22z m69 -38 c-7 -20 -48 -23 -48 -4 0 11 9 16 26 16 16 0 24 -5 22 -12z"/>
<path d="M6320 4895 c0 -37 4 -65 10 -65 6 0 10 26 10 59 0 38 4 61 13 64 6 3 2 6 -10 6 -22 1 -23 -3 -23 -64z"/>
<path d="M6370 4916 c0 -25 5 -48 10 -51 6 -4 10 13 10 44 0 28 -4 51 -10 51 -5 0 -10 -20 -10 -44z"/>
<path d="M6420 4913 l0 -48 38 0 37 0 3 48 c2 28 -1 47 -7 47 -6 0 -11 -18 -11 -41 0 -33 -3 -40 -17 -37 -13 2 -19 14 -21 41 -5 54 -22 46 -22 -10z"/>
<path d="M6370 4840 c0 -5 5 -10 10 -10 6 0 10 5 10 10 0 6 -4 10 -10 10 -5 0 -10 -4 -10 -10z"/>
<path d="M3884 4965 c-8 -21 4 -35 32 -35 29 0 32 25 5 40 -26 13 -31 13 -37 -5z"/>
<path d="M4110 4970 c-7 -4 -10 -15 -7 -25 8 -20 62 -17 62 4 0 17 -37 32 -55 21z"/>
<path d="M3710 4905 l0 -65 33 0 c59 0 86 58 51 108 -11 15 -25 22 -50 22 l-34 0 0 -65z"/>
<path d="M1350 4072 l0 -69 33 0 c38 0 67 22 67 52 0 29 -19 45 -52 45 -21 0 -28 5 -28 20 0 11 -4 20 -10 20 -6 0 -10 -29 -10 -68z m74 -5 c13 -21 -15 -53 -38 -44 -19 8 -21 38 -4 55 15 15 28 11 42 -11z"/>
<path d="M1652 4121 c9 -16 8 -27 -6 -59 -10 -22 -16 -46 -13 -54 3 -7 12 4 23 27 l17 40 15 -37 c8 -21 19 -38 23 -38 13 0 12 2 -17 75 -15 37 -32 65 -40 65 -11 0 -12 -4 -2 -19z"/>
<path d="M1110 4035 l0 -65 38 0 c47 0 72 24 72 67 0 39 -28 63 -73 63 l-37 0 0 -65z m82 32 c22 -35 0 -77 -39 -77 -21 0 -23 4 -23 51 0 51 0 51 27 44 15 -3 31 -12 35 -18z"/>
<path d="M1252 4088 c-20 -20 -14 -66 9 -79 29 -15 69 3 69 31 0 16 -7 20 -35 20 -19 0 -35 5 -35 10 0 17 29 23 44 11 14 -12 32 0 19 13 -11 10 -58 7 -71 -6z m56 -50 c-3 -7 -13 -13 -23 -13 -10 0 -20 6 -22 13 -3 7 5 12 22 12 17 0 25 -5 23 -12z"/>
<path d="M1470 4035 c0 -37 4 -65 10 -65 6 0 10 26 10 59 0 38 4 61 13 64 6 3 2 6 -10 6 -22 1 -23 -3 -23 -64z"/>
<path d="M1532 4088 c-20 -20 -14 -66 9 -79 33 -17 69 3 69 39 0 33 -16 52 -45 52 -12 0 -26 -5 -33 -12z m52 -14 c18 -18 6 -54 -19 -54 -25 0 -37 36 -19 54 8 9 17 16 19 16 2 0 11 -7 19 -16z"/>
<path d="M1741 4055 c-1 -49 0 -50 29 -52 16 -1 32 2 35 7 4 6 13 5 24 -2 33 -20 51 -3 51 47 0 25 -4 45 -10 45 -5 0 -10 -18 -10 -41 0 -33 -3 -40 -17 -37 -13 2 -19 14 -21 41 -4 47 -22 49 -22 3 0 -62 -35 -58 -50 6 -7 31 -8 30 -9 -17z"/>
<path d="M1912 4088 c-18 -18 -15 -52 6 -71 24 -22 45 -21 65 1 28 30 20 42 -25 42 -40 0 -41 1 -25 17 15 15 20 16 38 5 18 -11 20 -11 17 0 -6 17 -60 22 -76 6z m68 -48 c0 -6 -7 -13 -15 -16 -20 -8 -48 3 -40 16 8 13 55 13 55 0z"/>
<path d="M2020 4053 l0 -48 38 0 37 0 3 48 c2 28 -1 47 -7 47 -6 0 -11 -18 -11 -41 0 -33 -3 -40 -17 -37 -13 2 -19 14 -21 41 -5 54 -22 46 -22 -10z"/>
<path d="M2128 4053 c-2 -27 -2 -56 0 -65 5 -21 22 -24 22 -4 0 8 6 17 13 20 10 5 10 7 0 12 -19 8 -16 55 5 70 15 12 15 13 -9 14 -25 0 -27 -4 -31 -47z"/>
<path d="M6040 3311 l0 -71 33 0 c40 0 57 15 57 51 0 32 -23 53 -50 46 -15 -4 -20 0 -20 13 0 11 -4 22 -10 25 -6 4 -10 -20 -10 -64z m65 -21 c0 -18 -6 -26 -22 -28 -18 -3 -23 1 -23 21 0 28 9 39 30 35 9 -2 15 -14 15 -28z"/>
<path d="M5751 3278 l-1 -68 40 0 c34 0 41 4 46 25 8 31 -9 53 -44 57 -18 2 -28 11 -33 28 -5 16 -7 1 -8 -42z m57 -7 c21 -13 10 -46 -16 -49 -24 -4 -38 18 -28 43 6 17 24 19 44 6z"/>
<path d="M5860 3291 c0 -45 2 -48 25 -48 28 0 33 12 10 21 -9 3 -15 19 -15 41 0 19 -4 35 -10 35 -5 0 -10 -22 -10 -49z"/>
<path d="M5936 3325 c-32 -33 -11 -85 34 -85 19 0 33 7 40 19 17 33 11 41 -31 41 -27 0 -38 4 -33 11 4 6 19 9 36 5 21 -4 28 -2 26 7 -7 19 -53 20 -72 2z m51 -62 c-16 -16 -18 -16 -34 0 -16 16 -15 17 17 17 32 0 33 -1 17 -17z"/>
<path d="M6154 3325 c-10 -25 4 -45 31 -45 14 0 25 -4 25 -10 0 -11 -13 -14 -44 -10 -11 1 -15 -3 -12 -9 10 -15 66 -14 70 2 3 6 7 28 9 48 5 36 5 36 -34 37 -27 1 -42 -3 -45 -13z m56 -21 c0 -9 -7 -14 -17 -12 -25 5 -28 28 -4 28 12 0 21 -6 21 -16z"/>
<path d="M6262 3293 c-2 -50 -1 -53 23 -53 30 0 32 11 6 27 -11 7 -21 27 -24 45 -3 23 -4 17 -5 -19z"/>
<path d="M6324 3325 c-10 -25 4 -45 31 -45 14 0 25 -4 25 -10 0 -11 -13 -14 -44 -10 -11 1 -15 -3 -12 -9 10 -15 66 -14 70 2 3 6 7 28 9 48 5 36 5 36 -34 37 -27 1 -42 -3 -45 -13z m56 -21 c0 -9 -7 -14 -17 -12 -25 5 -28 28 -4 28 12 0 21 -6 21 -16z"/>
<path d="M6437 3332 c-5 -7 -10 -72 -8 -104 1 -21 21 -24 21 -4 0 8 6 17 13 19 10 4 10 6 0 6 -19 1 -17 71 2 71 8 0 15 5 15 10 0 12 -37 14 -43 2z"/>
<path d="M6490 3290 c0 -27 5 -50 10 -50 6 0 10 23 10 50 0 28 -4 50 -10 50 -5 0 -10 -22 -10 -50z"/>
<path d="M6546 3324 c-32 -32 -11 -84 34 -84 29 0 50 22 50 54 0 20 -28 46 -50 46 -10 0 -26 -7 -34 -16z m59 -34 c0 -18 -6 -26 -23 -28 -13 -2 -25 3 -28 12 -10 26 4 48 28 44 17 -2 23 -10 23 -28z"/>
<path d="M6650 3291 l0 -49 38 1 37 2 2 50 c1 47 1 48 -6 12 -9 -44 -15 -51 -36 -44 -9 4 -15 19 -15 42 0 19 -4 35 -10 35 -5 0 -10 -22 -10 -49z"/>
<path d="M6496 3221 c-4 -7 -5 -15 -2 -18 9 -9 19 4 14 18 -4 11 -6 11 -12 0z"/>
<path d="M6050 3055 l0 -65 38 0 c47 0 72 24 72 67 0 39 -28 63 -73 63 l-37 0 0 -65z m68 39 c40 -28 23 -84 -25 -84 -21 0 -23 4 -23 50 0 54 10 61 48 34z"/>
<path d="M6176 3105 c-7 -19 19 -45 45 -45 12 0 17 -4 13 -11 -3 -6 -17 -8 -30 -5 -13 4 -24 2 -24 -4 0 -16 49 -23 65 -10 9 7 15 29 15 51 0 39 0 39 -39 39 -25 0 -41 -5 -45 -15z m62 -12 c2 -8 -5 -13 -17 -13 -21 0 -35 13 -24 24 10 10 36 3 41 -11z"/>
<path d="M6288 3072 c-2 -26 -2 -55 0 -64 5 -21 22 -24 22 -4 0 8 6 17 13 20 10 5 10 7 0 12 -17 8 -17 75 -1 72 7 -2 17 -12 23 -23 6 -11 24 -23 40 -26 24 -5 27 -7 13 -13 -10 -5 -25 -6 -33 -2 -8 3 -15 1 -15 -4 0 -16 49 -23 65 -10 9 7 15 29 15 51 l0 38 -69 0 -69 -1 -4 -46z m106 32 c25 -9 19 -24 -9 -24 -24 0 -32 10 -18 23 8 8 8 8 27 1z"/>
<path d="M2999 2144 c-11 -14 -9 -15 23 -9 25 5 37 3 40 -7 4 -9 -4 -13 -25 -13 -25 0 -33 -6 -41 -28 -15 -42 2 -62 54 -63 l42 -2 -4 60 c-3 37 -10 63 -19 69 -22 14 -55 11 -70 -7z m66 -74 c0 -18 -6 -26 -23 -28 -13 -2 -25 3 -28 12 -10 26 4 48 28 44 17 -2 23 -10 23 -28z"/>
<path d="M1826 2098 c-18 -25 -22 -108 -6 -108 6 0 10 20 10 44 0 47 17 70 47 64 13 -2 21 -19 30 -58 l11 -55 1 52 c1 58 -15 83 -54 83 -13 0 -31 -10 -39 -22z"/>
<path d="M1950 2071 l0 -49 38 1 37 2 1 50 c2 48 2 48 -5 10 -5 -31 -10 -40 -26 -40 -16 0 -21 8 -23 38 -5 54 -22 45 -22 -12z"/>
<path d="M2065 2096 c-12 -18 -13 -29 -5 -51 9 -23 15 -27 40 -23 26 4 30 1 30 -19 0 -13 5 -23 10 -23 6 0 10 29 10 68 l0 67 -35 2 c-27 2 -38 -2 -50 -21z m60 -26 c0 -18 -6 -26 -21 -28 -23 -3 -37 18 -27 44 10 25 48 13 48 -16z"/>
<path d="M2186 2104 c-32 -32 -11 -84 34 -84 19 0 33 7 40 19 17 33 11 41 -31 41 -27 0 -38 4 -33 11 3 6 19 9 35 5 30 -6 40 8 13 18 -25 10 -42 7 -58 -10z m51 -61 c-16 -16 -18 -16 -34 0 -16 16 -15 17 17 17 32 0 33 -1 17 -17z"/>
<path d="M2292 2073 c-2 -50 -1 -53 23 -53 30 0 32 11 6 27 -11 7 -21 27 -24 45 -3 23 -4 17 -5 -19z"/>
<path d="M2357 2113 c-14 -14 -6 -19 23 -15 39 6 39 -10 -1 -25 -21 -8 -30 -17 -27 -30 4 -21 55 -31 72 -13 8 8 4 11 -18 8 -17 -2 -31 2 -33 10 -3 7 4 12 15 12 25 0 44 23 36 44 -6 16 -54 23 -67 9z"/>
<path d="M2457 2112 c-5 -7 -10 -72 -8 -104 1 -21 21 -24 21 -4 0 8 6 17 13 19 10 4 10 6 0 6 -19 1 -17 71 2 71 8 0 15 5 15 10 0 12 -37 14 -43 2z"/>
<path d="M2514 2105 c-10 -25 4 -45 31 -45 14 0 25 -4 25 -10 0 -11 -13 -14 -45 -10 -15 1 -17 -1 -9 -10 6 -6 24 -10 40 -8 27 3 29 7 32 48 l3 45 -36 3 c-24 1 -37 -3 -41 -13z m56 -21 c0 -9 -7 -14 -17 -12 -25 5 -28 28 -4 28 12 0 21 -6 21 -16z"/>
<path d="M2621 2074 l-1 -51 38 1 c37 1 37 1 40 49 2 28 -1 47 -7 47 -6 0 -11 -18 -11 -40 0 -33 -3 -40 -20 -40 -12 0 -21 8 -24 23 -3 12 -7 31 -9 42 -3 11 -5 -3 -6 -31z"/>
<path d="M2730 2101 c-24 -46 -1 -87 44 -79 21 4 26 1 29 -21 2 -14 5 0 6 31 0 31 3 63 6 71 10 24 -72 22 -85 -2z m65 -31 c0 -18 -6 -26 -23 -28 -13 -2 -25 3 -28 12 -10 26 4 48 28 44 17 -2 23 -10 23 -28z"/>
<path d="M2840 2070 c0 -27 5 -50 10 -50 6 0 10 23 10 50 0 28 -4 50 -10 50 -5 0 -10 -22 -10 -50z"/>
<path d="M2891 2072 l-1 -53 38 3 c37 3 37 3 40 51 2 28 -1 47 -7 47 -6 0 -11 -18 -11 -40 0 -63 -43 -50 -53 15 -2 19 -5 11 -6 -23z"/>
<path d="M2846 2001 c-4 -7 -5 -15 -2 -18 9 -9 19 4 14 18 -4 11 -6 11 -12 0z"/>
<path d="M2050 1834 l0 -65 43 3 c39 3 42 5 43 33 1 17 5 38 9 48 14 32 -2 47 -50 47 l-45 0 0 -66z m69 47 c21 -13 5 -41 -24 -41 -20 0 -25 5 -25 25 0 26 22 33 49 16z m0 -64 c14 -17 4 -27 -26 -27 -16 0 -23 6 -23 20 0 23 31 27 49 7z"/>
<path d="M2177 1893 c-11 -10 -8 -93 3 -93 6 0 10 18 10 39 0 22 5 43 10 46 19 12 40 -16 40 -52 0 -20 4 -32 10 -28 6 3 10 25 10 49 0 43 0 43 -38 44 -22 1 -42 -1 -45 -5z"/>
<path d="M2275 1890 c-4 -6 5 -9 24 -8 35 3 43 -15 9 -22 -34 -8 -37 -47 -4 -56 25 -6 46 1 46 15 0 5 -11 6 -25 3 -31 -6 -33 14 -2 24 48 15 42 54 -8 54 -19 0 -37 -5 -40 -10z"/>
<path d="M2383 1850 c0 -30 2 -43 4 -27 2 15 2 39 0 55 -2 15 -4 2 -4 -28z"/>
<path d="M2420 1853 l0 -48 38 0 37 0 2 50 c1 47 1 48 -6 12 -9 -44 -15 -51 -36 -44 -9 4 -15 19 -15 42 0 19 -4 35 -10 35 -5 0 -10 -21 -10 -47z"/>
<path d="M2529 1876 c-23 -51 37 -99 75 -60 29 28 20 44 -26 44 -40 0 -41 1 -25 17 15 15 20 16 38 5 18 -11 20 -11 17 0 -3 7 -19 14 -36 16 -26 3 -34 -1 -43 -22z m69 -38 c-7 -20 -48 -23 -48 -4 0 11 9 16 26 16 16 0 24 -5 22 -12z"/>
<path d="M2635 1889 c-6 -8 1 -9 24 -4 38 8 43 -11 6 -25 -26 -10 -34 -43 -14 -55 13 -9 59 2 59 14 0 4 -11 6 -25 3 -33 -6 -32 12 1 27 36 16 28 45 -13 49 -17 2 -34 -2 -38 -9z"/>
<path d="M2725 1890 c-4 -6 5 -9 24 -8 35 3 43 -15 9 -22 -34 -8 -37 -47 -4 -56 25 -6 46 1 46 15 0 5 -11 6 -25 3 -14 -2 -25 0 -25 7 0 6 11 13 25 17 18 4 25 13 25 30 0 21 -5 24 -34 24 -19 0 -38 -5 -41 -10z"/>
<path d="M5951 2136 c-10 -12 -6 -14 20 -13 18 1 34 -3 36 -10 3 -7 -3 -9 -16 -6 -28 7 -51 -14 -51 -47 0 -35 19 -51 59 -48 31 2 31 3 31 58 0 31 -5 61 -12 68 -16 16 -53 15 -67 -2z m57 -69 c5 -23 -15 -47 -33 -41 -20 8 -27 34 -14 51 16 18 43 13 47 -10z"/>
<path d="M4778 2099 c-14 -8 -18 -22 -17 -67 l2 -57 6 45 c8 54 17 70 40 70 28 0 41 -21 41 -67 0 -24 5 -43 10 -43 16 0 12 83 -6 108 -16 23 -48 28 -76 11z"/>
<path d="M4901 2064 l-1 -51 38 1 c37 1 37 1 40 49 2 28 -1 47 -7 47 -6 0 -11 -18 -11 -40 0 -33 -3 -40 -20 -40 -12 0 -21 8 -24 23 -3 12 -7 31 -9 42 -3 11 -5 -3 -6 -31z"/>
<path d="M5010 2091 c-23 -45 -5 -81 41 -81 21 0 29 -6 32 -22 2 -13 5 3 6 34 0 31 3 63 6 71 10 24 -72 22 -85 -2z m64 -16 c8 -23 -4 -45 -25 -45 -11 0 -22 7 -25 15 -9 23 3 45 25 45 10 0 21 -7 25 -15z"/>
<path d="M5132 2098 c-7 -7 -12 -24 -12 -38 0 -31 17 -50 45 -50 26 0 45 18 45 42 0 14 -8 18 -36 18 -23 0 -33 4 -28 11 4 6 19 9 36 5 26 -5 29 -4 18 9 -15 18 -51 20 -68 3z m58 -57 c0 -12 -21 -19 -37 -13 -22 8 -14 22 12 22 14 0 25 -4 25 -9z"/>
<path d="M5230 2061 c0 -45 2 -48 25 -48 28 0 33 12 10 21 -9 3 -15 19 -15 41 0 19 -4 35 -10 35 -5 0 -10 -22 -10 -49z"/>
<path d="M5300 2100 c-16 -10 -9 -13 28 -10 30 2 28 -16 -4 -24 -19 -5 -25 -12 -22 -29 3 -25 43 -36 62 -17 8 9 5 11 -13 8 -33 -4 -38 18 -6 26 20 5 26 12 23 29 -3 24 -42 34 -68 17z"/>
<path d="M5400 2071 c0 -22 -4 -43 -10 -46 -6 -4 -6 -12 2 -24 10 -17 12 -17 28 -2 13 13 14 18 3 24 -18 11 -16 56 2 63 22 9 18 24 -5 24 -17 0 -20 -7 -20 -39z"/>
<path d="M5454 2095 c-11 -27 4 -45 37 -45 27 0 30 -2 19 -15 -8 -10 -21 -13 -33 -9 -13 4 -17 2 -13 -5 10 -15 56 -14 60 2 3 6 7 28 9 48 5 36 5 36 -34 37 -27 1 -42 -3 -45 -13z m59 -20 c-4 -15 -36 -12 -41 3 -3 9 3 13 19 10 13 -1 23 -7 22 -13z"/>
<path d="M5560 2062 l0 -49 39 -1 c42 -2 51 10 51 71 0 41 -18 33 -22 -10 -2 -30 -7 -38 -23 -38 -16 0 -21 8 -23 38 -5 54 -22 45 -22 -11z"/>
<path d="M5683 2097 c-30 -38 -12 -87 33 -87 17 0 24 -5 24 -20 0 -11 5 -20 10 -20 6 0 10 29 10 68 l0 67 -34 2 c-18 2 -38 -3 -43 -10z m52 -37 c0 -18 -6 -26 -21 -28 -26 -4 -40 24 -23 45 18 21 44 11 44 -17z"/>
<path d="M5790 2060 c0 -27 5 -50 10 -50 6 0 10 23 10 50 0 28 -4 50 -10 50 -5 0 -10 -22 -10 -50z"/>
<path d="M5830 2062 l0 -49 39 -1 c42 -2 51 10 51 71 0 41 -18 33 -22 -10 -2 -30 -7 -38 -23 -38 -16 0 -21 8 -23 38 -5 54 -22 45 -22 -11z"/>
<path d="M5790 1986 c0 -9 5 -16 10 -16 6 0 10 4 10 9 0 6 -4 13 -10 16 -5 3 -10 -1 -10 -9z"/>
<path d="M5180 1825 l0 -65 38 0 c47 0 72 24 72 67 0 39 -28 63 -73 63 l-37 0 0 -65z m68 39 c40 -28 23 -84 -25 -84 -21 0 -23 4 -23 50 0 54 10 61 48 34z"/>
<path d="M5306 1875 c-7 -19 19 -45 45 -45 12 0 17 -4 13 -11 -3 -6 -17 -8 -30 -5 -13 4 -24 2 -24 -4 0 -16 49 -23 65 -10 9 7 15 29 15 51 0 39 0 39 -39 39 -25 0 -41 -5 -45 -15z m62 -12 c2 -8 -5 -13 -17 -13 -21 0 -35 13 -24 24 10 10 36 3 41 -11z"/>
<path d="M5418 1842 c-2 -26 -2 -55 0 -64 5 -21 22 -24 22 -4 0 8 6 17 13 20 10 5 10 7 0 12 -17 8 -17 75 -1 72 7 -2 17 -12 23 -23 6 -11 24 -23 40 -26 24 -5 27 -7 13 -13 -10 -5 -25 -6 -33 -2 -8 3 -15 1 -15 -4 0 -16 49 -23 65 -10 9 7 15 29 15 51 l0 38 -69 0 -69 -1 -4 -46z m106 32 c25 -9 19 -24 -9 -24 -24 0 -32 10 -18 23 8 8 8 8 27 1z"/>
</g>
<g id="layer104" fill="#ffffff" stroke="none">
<path d="M0 4000 l0 -4000 4000 0 4000 0 0 4000 0 4000 -4000 0 -4000 0 0 -4000z m4173 3853 c4 -38 7 -93 7 -123 0 -30 4 -60 8 -66 4 -6 75 -18 159 -28 460 -50 855 -165 1254 -365 565 -284 1059 -722 1416 -1256 347 -521 549 -1117 598 -1765 6 -81 11 -94 108 -300 55 -118 102 -218 104 -221 1 -4 -46 -4 -105 -1 l-107 5 -12 -124 c-59 -607 -288 -1214 -650 -1726 -181 -256 -460 -553 -702 -746 -567 -452 -1224 -719 -1941 -787 l-115 -11 -203 -121 c-111 -66 -205 -118 -209 -114 -4 3 -9 58 -11 120 l-4 114 -92 6 c-362 27 -770 124 -1116 266 -750 309 -1398 886 -1800 1604 -235 421 -388 905 -440 1396 l-11 105 -125 193 c-68 106 -124 196 -124 201 0 10 83 21 160 21 30 0 61 4 67 8 7 4 15 39 18 77 54 663 223 1196 543 1710 556 892 1474 1511 2492 1679 137 23 330 46 379 46 10 0 111 60 227 134 115 74 212 135 215 135 3 1 9 -29 12 -66z"/>
<path d="M3560 7524 c-568 -69 -1100 -262 -1555 -565 -227 -151 -354 -257 -560 -463 -382 -383 -643 -796 -830 -1311 -103 -284 -184 -682 -197 -969 l-3 -70 65 3 c36 1 80 4 98 8 17 3 32 1 32 -4 0 -6 -43 -103 -96 -217 l-96 -208 12 -106 c73 -678 338 -1321 766 -1857 113 -142 398 -427 539 -539 557 -443 1237 -714 1943 -771 l82 -7 0 101 c0 56 2 101 5 101 3 0 96 -45 207 -101 l201 -101 121 12 c604 57 1199 274 1694 617 315 218 650 552 881 877 345 485 575 1111 627 1707 l6 76 -38 6 c-22 4 -71 7 -111 7 -39 0 -74 4 -77 9 -3 4 49 94 115 200 l120 191 -6 72 c-52 632 -223 1164 -533 1660 -199 317 -498 651 -797 892 -441 354 -979 600 -1550 710 -102 20 -377 56 -423 56 -4 0 -6 -41 -4 -90 l4 -91 -53 24 c-30 14 -118 54 -196 91 -161 75 -172 77 -393 50z m1205 -984 c26 -13 49 -34 63 -59 20 -35 22 -53 22 -201 0 -148 -2 -166 -22 -201 -14 -25 -37 -46 -63 -59 -41 -20 -57 -20 -838 -18 -789 3 -796 3 -824 24 -15 11 -38 36 -50 54 -22 31 -23 43 -23 197 0 174 5 196 52 240 12 12 34 26 48 32 16 6 313 10 809 10 765 1 786 0 826 -19z m385 -174 c0 -40 3 -41 100 -51 93 -10 285 -59 388 -99 197 -76 340 -164 471 -290 169 -164 256 -332 277 -536 5 -50 3 -68 -8 -77 -24 -21 -35 0 -46 89 -23 183 -98 326 -246 473 -129 129 -277 222 -469 295 -129 49 -352 100 -439 100 -35 0 -37 -2 -40 -34 l-3 -33 -83 53 c-82 52 -83 53 -60 67 32 20 141 76 151 77 4 0 7 -15 7 -34z m-2255 -41 c0 -17 -9 -21 -70 -28 -38 -5 -106 -17 -150 -28 -413 -99 -777 -553 -936 -1168 -35 -135 -66 -316 -75 -442 l-7 -89 37 0 c20 0 36 -2 36 -5 0 -8 -91 -155 -100 -160 -5 -3 -29 32 -54 77 l-45 83 37 5 37 5 7 90 c23 291 111 625 233 880 210 443 524 723 888 790 40 8 92 13 117 12 38 -2 45 -5 45 -22z m1792 -407 c42 -46 147 -216 199 -323 324 -668 252 -1482 -199 -2246 -197 -334 -516 -698 -841 -957 -70 -56 -137 -109 -149 -117 -19 -13 -19 -15 -3 -39 9 -15 13 -26 9 -27 -5 0 -17 -2 -28 -4 -50 -8 -135 -15 -135 -11 0 6 60 140 65 145 3 2 13 -7 23 -20 23 -28 20 -29 168 89 488 389 857 871 1063 1390 57 143 104 294 127 407 29 143 30 155 44 270 14 130 12 352 -5 492 -40 324 -162 637 -348 891 -21 29 -36 60 -33 68 8 20 19 18 43 -8z m2363 -760 c72 -49 75 -60 75 -253 0 -193 -3 -204 -75 -252 l-33 -23 -802 0 -802 0 -33 23 c-68 46 -75 64 -79 214 -4 175 2 215 42 259 17 20 40 40 51 44 12 5 381 9 822 9 l801 1 33 -22z m-3239 -187 c40 -41 40 -91 -1 -132 -26 -26 -36 -30 -77 -27 l-48 3 -3 79 c-2 44 -1 85 2 93 3 8 22 13 51 13 38 0 52 -5 76 -29z m163 11 c-1 -7 -2 -29 -2 -50 -1 -21 -8 -47 -16 -57 -23 -32 -112 -18 -92 14 5 8 13 8 28 0 16 -9 24 -8 36 5 15 15 14 16 -12 16 -15 0 -36 5 -47 10 -24 13 -25 56 -1 69 23 14 107 8 106 -7z m91 -2 c0 -9 -7 -14 -17 -12 -15 2 -18 -5 -18 -38 0 -29 4 -40 15 -40 8 0 15 -7 15 -15 0 -8 -7 -15 -15 -15 -9 0 -15 -10 -15 -26 0 -30 -23 -28 -29 2 -2 10 -8 22 -15 26 -8 5 -7 11 2 20 6 6 12 30 12 53 0 23 6 47 12 53 17 17 53 11 53 -8z m128 -34 c-2 -28 -6 -57 -9 -64 -6 -20 -46 -30 -77 -19 -31 10 -31 34 -1 28 37 -7 47 -6 51 7 3 8 -5 12 -23 12 -28 0 -64 25 -64 43 0 27 33 46 80 45 l49 -1 -6 -51z m68 -244 c94 -25 160 -56 194 -89 22 -23 25 -33 25 -104 l0 -78 -33 19 c-209 124 -752 129 -989 10 l-58 -28 0 77 c0 71 2 79 28 104 39 37 130 76 230 98 126 27 491 22 603 -9z m-70 -257 c113 -19 203 -53 250 -93 l39 -34 0 -79 0 -79 -22 14 c-41 27 -151 63 -248 81 -70 14 -142 18 -275 18 -212 0 -345 -23 -462 -78 l-73 -34 0 78 c0 71 2 79 28 103 110 106 469 155 763 103z m2208 -81 c23 -41 41 -80 41 -85 0 -5 -13 -9 -29 -9 -21 0 -30 -6 -35 -22 -3 -13 -6 -147 -6 -299 0 -230 -2 -279 -15 -289 -35 -29 -38 -6 -32 306 l5 304 -28 0 c-16 0 -31 3 -33 8 -4 6 80 162 88 162 2 0 22 -34 44 -76z m-228 -204 c-1 -129 -4 -254 -7 -277 l-6 -43 36 0 c20 0 36 -3 36 -6 0 -9 -82 -144 -90 -149 -7 -4 -90 134 -90 150 0 3 14 5 30 5 17 0 32 6 35 13 3 9 10 265 15 535 0 8 9 12 22 10 21 -3 22 -4 19 -238z m-3641 98 c70 -48 75 -62 78 -241 3 -152 2 -165 -20 -207 -14 -26 -37 -53 -58 -65 -34 -20 -53 -20 -813 -23 -498 -1 -792 1 -815 8 -49 13 -101 67 -113 116 -4 22 -8 95 -8 164 0 130 11 183 46 222 42 48 28 47 874 48 l796 0 33 -22z m1545 -68 c186 -18 315 -58 378 -117 25 -25 27 -33 27 -104 l0 -77 -58 28 c-225 113 -708 115 -949 5 l-73 -34 0 78 c0 71 2 79 28 103 60 56 198 101 359 117 127 12 165 12 288 1z m140 -291 c111 -22 196 -57 238 -96 25 -25 27 -32 27 -109 0 -81 0 -82 -34 -112 -39 -34 -118 -66 -221 -90 -53 -12 -122 -16 -285 -17 -190 0 -225 3 -303 23 -107 27 -190 65 -217 99 -30 38 -29 159 2 198 87 111 489 163 793 104z m2842 -465 c15 -11 38 -40 51 -65 22 -41 23 -53 20 -199 -4 -181 -14 -210 -88 -247 l-44 -23 -781 0 -781 0 -44 23 c-33 16 -51 34 -67 67 -21 40 -23 59 -23 187 0 148 9 193 48 237 41 46 29 46 879 43 792 -2 802 -2 830 -23z m-1002 -736 c-15 -46 -31 -87 -36 -92 -4 -5 -18 3 -31 18 l-23 27 -205 -171 c-113 -93 -212 -169 -220 -167 -43 7 -13 41 185 207 l207 172 -23 24 c-20 21 -21 26 -9 34 8 5 26 10 40 11 14 0 50 6 80 13 30 6 57 11 59 9 1 -1 -9 -39 -24 -85z m-2777 -496 c60 -44 67 -68 67 -252 0 -184 -7 -208 -67 -252 l-33 -23 -810 0 -810 0 -34 24 c-58 42 -71 86 -71 251 0 120 4 152 19 186 17 38 54 73 91 87 8 3 375 5 815 4 l800 -2 33 -23z m2938 7 c76 -36 84 -60 84 -259 0 -199 -8 -223 -84 -259 -43 -21 -49 -21 -839 -19 -786 3 -796 3 -823 24 -64 47 -69 62 -72 227 -4 178 0 206 35 248 51 60 17 58 872 59 774 0 785 0 827 -21z m-2504 -101 l3 -33 270 0 c149 0 275 -4 282 -8 7 -4 10 -14 7 -22 -5 -12 -52 -15 -283 -17 l-276 -3 -3 -33 c-2 -18 -7 -32 -10 -30 -32 14 -152 83 -152 88 1 6 141 89 152 89 4 1 8 -14 10 -31z m523 -210 c41 -23 75 -44 75 -47 0 -7 -143 -91 -153 -91 -4 0 -7 15 -7 34 l0 35 -307 -2 c-302 -2 -308 -2 -308 18 0 19 8 20 305 25 l305 5 3 33 c2 17 5 32 8 32 2 0 38 -19 79 -42z"/>
<path d="M3530 6285 l0 -65 43 2 42 1 -37 4 c-32 4 -38 8 -38 28 0 19 6 24 33 28 l32 4 -32 1 c-28 2 -33 6 -33 26 0 21 5 25 38 29 l37 4 -42 1 -43 2 0 -65z"/>
<path d="M3660 6331 c-21 -40 -30 -71 -20 -71 6 0 10 4 10 9 0 5 5 22 11 38 l11 28 18 -40 c22 -48 26 -32 5 19 -18 42 -21 43 -35 17z"/>
<path d="M3734 6335 c-7 -17 3 -35 18 -35 7 0 6 5 -2 15 -10 12 -9 16 4 21 25 10 45 -3 44 -28 -2 -33 -15 -47 -41 -42 -20 4 -21 4 -2 -5 31 -13 52 4 57 47 3 39 3 39 -35 40 -25 1 -40 -3 -43 -13z"/>
<path d="M3847 6343 c-11 -10 -8 -123 3 -123 6 0 10 26 10 59 0 38 4 61 13 64 8 4 6 6 -4 6 -9 1 -19 -2 -22 -6z"/>
<path d="M3907 6343 c-4 -3 -6 -25 -6 -47 l2 -41 6 40 c5 31 10 40 26 40 16 0 21 -8 23 -37 4 -52 22 -48 22 5 0 41 -1 42 -33 44 -19 2 -37 0 -40 -4z"/>
<path d="M4004 6336 c-7 -17 3 -36 18 -36 7 0 6 5 -2 15 -10 12 -9 16 4 21 26 10 44 -2 44 -31 0 -15 -7 -29 -14 -32 -8 -3 -14 -9 -14 -14 0 -6 9 -5 20 1 15 8 20 21 20 48 0 36 -2 38 -35 40 -24 2 -37 -2 -41 -12z"/>
<path d="M4120 6311 c0 -22 -4 -41 -8 -43 -4 -1 -2 -14 5 -28 12 -24 13 -24 13 -3 0 12 6 24 13 26 10 4 10 6 0 6 -21 2 -16 69 5 74 13 4 11 5 -5 6 -20 1 -23 -4 -23 -38z"/>
<path d="M4183 6305 c0 -27 2 -38 4 -22 2 15 2 37 0 50 -2 12 -4 0 -4 -28z"/>
<path d="M4226 6329 c-21 -30 -6 -63 30 -67 45 -6 70 41 38 72 -22 22 -50 20 -68 -5z m59 -24 c0 -25 -4 -30 -25 -30 -16 0 -26 6 -28 18 -6 30 6 49 30 45 18 -2 23 -9 23 -33z"/>
<path d="M4332 6310 c-2 -37 1 -46 16 -47 9 -1 22 -2 27 -3 29 -6 35 2 33 48 -1 44 -2 44 -5 9 -7 -64 -58 -59 -66 6 -3 25 -4 22 -5 -13z"/>
<path d="M4013 6263 c4 -3 10 -3 14 0 3 4 0 7 -7 7 -7 0 -10 -3 -7 -7z"/>
<path d="M4180 6230 c0 -7 3 -10 7 -7 3 4 3 10 0 14 -4 3 -7 0 -7 -7z"/>
<path d="M6537 4993 c-15 -14 -6 -23 12 -12 22 14 51 6 51 -14 0 -10 -8 -13 -24 -10 -31 6 -58 -30 -47 -61 6 -16 17 -21 45 -22 l36 -1 0 57 c0 44 -4 59 -16 64 -21 8 -49 8 -57 -1z m58 -78 c0 -25 -4 -30 -25 -30 -16 0 -26 6 -28 18 -6 30 6 49 30 45 18 -2 23 -9 23 -33z"/>
<path d="M5820 4895 c0 -36 4 -65 8 -65 5 0 19 18 31 40 25 45 39 43 61 -10 20 -48 30 -35 28 38 -1 66 -1 67 -7 17 l-6 -50 -24 39 -24 38 -24 -38 -23 -39 0 48 c0 26 -4 47 -10 47 -6 0 -10 -28 -10 -65z"/>
<path d="M5992 4948 c-30 -30 -3 -83 39 -76 32 5 45 31 31 62 -13 28 -49 35 -70 14z m59 -14 c17 -21 0 -49 -32 -49 -27 0 -37 28 -19 50 16 19 34 19 51 -1z"/>
<path d="M6102 4948 c-15 -15 -15 -51 0 -66 7 -7 24 -12 39 -12 21 0 29 -6 32 -22 2 -13 5 6 6 42 l1 66 -33 2 c-18 1 -38 -3 -45 -10z m58 -13 c18 -21 3 -55 -25 -55 -15 0 -26 7 -30 20 -7 23 10 50 30 50 7 0 18 -7 25 -15z"/>
<path d="M6221 4946 c-19 -23 -10 -70 14 -74 20 -4 20 -4 0 11 -26 20 -16 29 26 25 31 -3 32 -4 15 -20 -10 -10 -14 -18 -9 -18 13 0 33 22 33 37 0 9 -14 13 -41 13 -28 0 -39 4 -36 13 2 6 18 11 36 11 17 -1 28 2 25 7 -8 14 -50 11 -63 -5z"/>
<path d="M6327 4953 c-11 -10 -8 -123 3 -123 6 0 10 26 10 59 0 38 4 61 13 64 8 4 6 6 -4 6 -9 1 -19 -2 -22 -6z"/>
<path d="M6383 4915 c0 -27 2 -38 4 -22 2 15 2 37 0 50 -2 12 -4 0 -4 -28z"/>
<path d="M6422 4919 l-2 -46 38 1 c37 1 37 1 38 46 1 40 1 41 -3 7 -7 -64 -58 -59 -66 6 -3 25 -4 21 -5 -14z"/>
<path d="M6380 4840 c0 -7 3 -10 7 -7 3 4 3 10 0 14 -4 3 -7 0 -7 -7z"/>
<path d="M3720 4905 c0 -62 1 -65 23 -65 30 0 60 32 60 65 0 33 -30 65 -60 65 -22 0 -23 -3 -23 -65z"/>
<path d="M3884 4959 c-3 -6 0 -15 7 -20 18 -11 21 -11 39 1 13 9 13 11 0 20 -20 13 -37 13 -46 -1z"/>
<path d="M4110 4956 c0 -8 6 -16 13 -19 19 -7 41 8 33 22 -10 16 -46 14 -46 -3z"/>
<path d="M1361 4078 l-1 -68 35 0 c28 0 38 5 44 23 13 35 -2 62 -35 62 -23 0 -30 6 -35 25 -4 15 -7 -2 -8 -42z m64 -23 c0 -25 -4 -30 -25 -30 -16 0 -26 6 -28 18 -6 30 6 49 30 45 18 -2 23 -9 23 -33z"/>
<path d="M1654 4124 c20 -19 20 -17 -5 -65 -11 -23 -18 -43 -15 -47 3 -3 13 12 22 34 l17 39 18 -40 c9 -22 18 -35 18 -28 2 22 -47 123 -59 123 -7 0 -5 -7 4 -16z"/>
<path d="M1110 4035 l0 -65 35 0 c22 0 43 8 55 20 43 43 10 110 -55 110 l-35 0 0 -65z m80 40 c30 -36 4 -95 -42 -95 -15 0 -18 9 -18 55 0 51 2 55 24 55 13 0 29 -7 36 -15z"/>
<path d="M1252 4088 c-24 -24 -8 -79 23 -78 5 0 2 5 -7 11 -29 16 -21 29 17 29 38 0 46 -13 18 -29 -10 -6 -13 -11 -7 -11 14 0 34 21 34 37 0 9 -14 13 -41 13 -37 0 -40 2 -28 16 7 9 22 14 36 11 12 -2 20 0 17 4 -8 13 -48 11 -62 -3z"/>
<path d="M1477 4093 c-4 -3 -6 -34 -5 -67 l2 -61 3 55 c3 36 9 59 20 68 14 10 15 12 2 12 -9 0 -19 -3 -22 -7z"/>
<path d="M1532 4088 c-28 -28 -7 -78 33 -78 27 0 45 18 45 45 0 27 -18 45 -45 45 -12 0 -26 -5 -33 -12z m58 -13 c18 -21 3 -55 -25 -55 -15 0 -26 7 -30 20 -7 23 10 50 30 50 7 0 18 -7 25 -15z"/>
<path d="M1741 4059 l-1 -46 45 0 c25 0 48 -3 52 -6 3 -4 14 -2 24 4 14 7 19 20 18 52 l-2 42 -6 -40 c-5 -31 -10 -40 -26 -40 -16 0 -21 8 -23 38 -4 50 -22 48 -22 -3 0 -33 -3 -40 -20 -40 -12 0 -21 8 -24 23 -3 12 -7 31 -9 42 -3 11 -5 -1 -6 -26z"/>
<path d="M1916 4079 c-18 -26 -7 -63 20 -67 18 -3 18 -2 2 8 -27 17 -21 30 12 30 32 0 37 -9 18 -28 -9 -9 -9 -12 0 -12 10 0 32 30 32 44 0 3 -18 6 -41 6 -28 0 -39 4 -36 13 2 6 18 11 36 11 17 -1 28 2 25 7 -10 17 -53 9 -68 -12z"/>
<path d="M2022 4059 l-2 -46 38 1 c37 1 37 1 38 46 1 40 1 41 -3 7 -7 -64 -58 -59 -66 6 -3 25 -4 21 -5 -14z"/>
<path d="M2137 4093 c-5 -9 -10 -64 -8 -100 1 -28 21 -31 21 -4 0 11 6 22 13 24 10 4 10 6 0 6 -8 1 -13 15 -13 35 0 19 6 37 13 39 7 3 6 6 -5 6 -9 1 -19 -2 -21 -6z"/>
<path d="M6041 3310 l-1 -65 35 -2 c35 -3 55 16 55 51 0 25 -29 47 -55 40 -19 -5 -24 -1 -28 18 -2 12 -5 -6 -6 -42z m79 -19 c0 -28 -28 -47 -48 -34 -24 15 -27 44 -7 59 22 17 55 1 55 -25z"/>
<path d="M5751 3277 l-1 -68 36 3 c68 6 73 69 6 76 -25 3 -32 8 -35 30 -2 15 -5 -4 -6 -41z m69 -12 c17 -20 -3 -45 -36 -45 -20 0 -24 5 -24 30 0 25 4 30 24 30 13 0 29 -7 36 -15z"/>
<path d="M5861 3295 c-1 -47 0 -50 24 -50 22 0 23 1 9 12 -10 7 -20 29 -24 50 -8 38 -8 38 -9 -12z"/>
<path d="M5940 3320 c-24 -24 -24 -29 -4 -58 19 -28 51 -26 72 6 14 22 14 22 -27 22 -43 0 -51 9 -25 31 13 11 19 10 37 -1 20 -12 21 -12 8 3 -18 22 -37 21 -61 -3z m58 -52 c-3 -7 -15 -13 -28 -13 -13 0 -25 6 -27 13 -3 8 6 12 27 12 21 0 30 -4 28 -12z"/>
<path d="M6163 3333 c-7 -2 -13 -13 -13 -23 0 -19 19 -30 52 -30 17 0 19 -2 7 -16 -7 -8 -21 -13 -31 -11 -10 3 -16 1 -12 -4 8 -13 38 -11 52 3 7 7 12 29 12 50 0 30 -3 36 -16 31 -11 -4 -12 -9 -5 -16 18 -18 13 -27 -13 -27 -33 0 -44 20 -21 37 19 13 12 16 -12 6z"/>
<path d="M6262 3295 c-2 -48 -1 -50 25 -52 l27 -1 -21 16 c-13 10 -23 32 -26 52 -3 28 -4 25 -5 -15z"/>
<path d="M6332 3328 c-26 -26 -7 -48 40 -48 17 0 19 -2 7 -16 -7 -8 -21 -13 -31 -11 -10 3 -16 1 -12 -4 8 -13 38 -11 52 3 7 7 12 29 12 50 0 30 -3 36 -16 31 -11 -4 -12 -9 -5 -16 18 -18 13 -27 -13 -27 -33 0 -44 20 -21 37 11 7 14 13 9 13 -6 0 -15 -5 -22 -12z"/>
<path d="M6436 3323 c-5 -19 -9 -67 -7 -95 1 -21 21 -24 21 -4 0 8 6 17 13 19 10 4 10 6 0 6 -15 1 -18 71 -3 71 6 0 10 5 10 10 0 17 -28 11 -34 -7z"/>
<path d="M6503 3290 c0 -30 2 -43 4 -27 2 15 2 39 0 55 -2 15 -4 2 -4 -28z"/>
<path d="M6550 3320 c-11 -11 -20 -23 -20 -28 0 -18 33 -52 50 -52 17 0 50 34 50 52 0 11 -38 48 -50 48 -5 0 -19 -9 -30 -20z m48 -2 c29 -29 4 -76 -33 -62 -26 10 -13 74 15 74 3 0 11 -5 18 -12z"/>
<path d="M6651 3295 l-1 -50 38 0 37 0 1 50 2 50 -7 -44 c-9 -68 -48 -65 -61 5 l-8 39 -1 -50z"/>
<path d="M6500 3210 c0 -7 3 -10 7 -7 3 4 3 10 0 14 -4 3 -7 0 -7 -7z"/>
<path d="M6050 3055 l0 -65 33 0 c43 0 65 17 73 56 8 43 -22 74 -71 74 l-35 0 0 -65z m80 40 c30 -36 4 -95 -42 -95 -15 0 -18 9 -18 55 0 51 2 55 24 55 13 0 29 -7 36 -15z"/>
<path d="M6187 3113 c-14 -13 -6 -33 16 -43 21 -11 21 -11 3 4 -15 12 -17 19 -9 27 19 19 43 2 43 -31 0 -29 -7 -34 -40 -31 -13 2 -13 0 -1 -8 30 -20 61 7 61 54 0 27 -3 30 -33 32 -19 2 -37 0 -40 -4z"/>
<path d="M6295 3111 c-8 -13 -9 -110 -1 -118 3 -3 6 1 6 10 0 9 8 21 18 26 16 10 16 10 0 11 -13 0 -18 8 -18 30 0 17 7 33 18 39 16 10 16 10 0 11 -9 0 -19 -4 -23 -9z"/>
<path d="M6357 3113 c-10 -10 -8 -43 2 -43 5 0 7 9 4 21 -5 17 -2 20 18 17 19 -2 25 -10 27 -35 3 -34 0 -36 -43 -34 -20 1 -20 1 0 -8 33 -13 55 -2 55 29 0 16 2 34 5 42 4 9 -5 14 -28 15 -19 2 -37 0 -40 -4z"/>
<path d="M3010 2150 c-8 -5 -12 -11 -9 -14 3 -3 14 1 25 9 21 16 8 20 -16 5z"/>
<path d="M3060 2135 c11 -13 12 -19 3 -22 -10 -4 -10 -9 0 -24 15 -24 -1 -54 -29 -54 -26 0 -30 41 -7 67 18 20 18 21 -3 10 -26 -14 -35 -33 -27 -61 6 -22 9 -23 56 -25 28 -2 28 -2 25 58 -2 42 -7 61 -18 64 -13 5 -13 3 0 -13z"/>
<path d="M1836 2107 c-13 -10 -20 -30 -22 -68 l-4 -54 13 55 c10 46 16 56 36 58 32 5 44 -10 52 -66 l6 -47 2 48 c2 70 -39 106 -83 74z"/>
<path d="M1951 2075 l-1 -50 38 0 37 0 1 50 2 50 -7 -44 c-9 -68 -48 -65 -61 5 l-8 39 -1 -50z"/>
<path d="M2076 2108 c-20 -11 -21 -61 -1 -78 8 -6 23 -9 35 -5 17 5 20 2 20 -19 0 -14 5 -26 10 -26 6 0 10 29 10 68 l0 67 -29 1 c-16 1 -36 -3 -45 -8z m38 -4 c21 -8 21 -60 0 -68 -34 -13 -59 35 -32 62 14 14 12 14 32 6z"/>
<path d="M2190 2100 c-24 -24 -24 -29 -4 -58 19 -28 51 -26 72 6 14 22 14 22 -27 22 -28 0 -41 4 -41 14 0 20 28 28 53 14 20 -10 21 -10 8 5 -18 22 -37 21 -61 -3z m58 -52 c-3 -7 -15 -13 -28 -13 -13 0 -25 6 -27 13 -3 8 6 12 27 12 21 0 30 -4 28 -12z"/>
<path d="M2292 2075 c-2 -48 -1 -50 25 -52 l27 -1 -21 16 c-13 10 -23 32 -26 52 -3 28 -4 25 -5 -15z"/>
<path d="M2360 2110 c-11 -7 -8 -9 14 -7 35 2 46 -19 14 -28 -30 -10 -40 -26 -26 -42 12 -15 44 -17 52 -4 3 4 -6 6 -19 3 -34 -6 -34 24 1 32 19 5 25 12 22 29 -3 24 -34 33 -58 17z"/>
<path d="M2456 2103 c-5 -19 -9 -67 -7 -95 1 -21 21 -24 21 -4 0 8 6 17 13 19 10 4 10 6 0 6 -15 1 -18 71 -3 71 6 0 10 5 10 10 0 17 -28 11 -34 -7z"/>
<path d="M2523 2113 c-7 -2 -13 -13 -13 -24 0 -14 9 -21 30 -26 38 -7 33 -29 -6 -26 -28 1 -29 1 -6 -10 35 -16 56 2 60 51 3 33 0 41 -11 36 -9 -3 -13 -13 -10 -25 4 -14 0 -19 -15 -19 -29 0 -38 21 -17 37 19 13 12 16 -12 6z"/>
<path d="M2622 2075 c-2 -48 -1 -50 26 -52 39 -2 52 14 51 61 l-1 41 -8 -38 c-4 -21 -12 -43 -18 -49 -18 -18 -40 8 -45 50 -3 31 -4 29 -5 -13z"/>
<path d="M2736 2101 c-9 -10 -16 -25 -16 -34 0 -26 30 -49 56 -43 19 5 23 2 27 -21 2 -16 5 -2 6 29 0 31 3 62 6 70 8 21 -60 20 -79 -1z m58 -14 c14 -22 -4 -52 -30 -52 -23 0 -31 39 -13 61 14 17 28 14 43 -9z"/>
<path d="M2853 2070 c0 -30 2 -43 4 -27 2 15 2 39 0 55 -2 15 -4 2 -4 -28z"/>
<path d="M2892 2075 l-2 -50 35 -2 c29 -3 36 1 41 21 3 13 4 37 1 52 -4 26 -4 25 -6 -7 -3 -74 -56 -74 -64 -1 -3 31 -4 29 -5 -13z"/>
<path d="M2850 1990 c0 -7 3 -10 7 -7 3 4 3 10 0 14 -4 3 -7 0 -7 -7z"/>
<path d="M2050 1835 l0 -65 33 0 c44 0 58 12 55 46 -1 16 2 35 6 42 13 21 -14 42 -55 42 l-39 0 0 -65z m75 30 c0 -15 -8 -21 -32 -23 -30 -3 -33 -1 -33 23 0 24 3 26 33 23 24 -2 32 -8 32 -23z m0 -60 c0 -16 -7 -20 -30 -20 -24 0 -31 5 -33 23 -3 21 0 23 30 20 25 -2 33 -8 33 -23z"/>
<path d="M2176 1884 c-3 -9 -6 -30 -5 -47 1 -30 2 -29 11 11 13 61 52 53 60 -13 3 -24 5 -21 8 16 l5 46 -36 1 c-25 1 -39 -3 -43 -14z"/>
<path d="M2286 1892 c-3 -4 8 -6 25 -4 38 6 38 -13 -1 -33 -16 -9 -30 -20 -30 -25 0 -16 34 -28 55 -19 l20 9 -20 -1 c-54 -3 -62 13 -14 30 21 7 30 16 27 28 -3 19 -52 31 -62 15z"/>
<path d="M2383 1855 c0 -27 2 -38 4 -22 2 15 2 37 0 50 -2 12 -4 0 -4 -28z"/>
<path d="M2422 1859 l-2 -46 38 1 c37 1 37 1 38 46 1 40 1 41 -3 7 -7 -64 -58 -59 -66 6 -3 25 -4 21 -5 -14z"/>
<path d="M2541 1886 c-19 -23 -10 -70 14 -74 18 -2 18 -2 3 8 -27 17 -21 30 12 30 20 0 30 -5 30 -15 0 -8 -5 -15 -12 -15 -6 0 -8 -3 -5 -6 9 -9 37 15 37 32 0 10 -13 14 -41 14 -28 0 -39 4 -36 13 2 6 18 11 36 11 17 -1 28 2 25 7 -8 14 -50 11 -63 -5z"/>
<path d="M2646 1891 c-3 -4 5 -6 18 -4 37 7 42 -16 7 -28 -30 -11 -41 -32 -22 -43 5 -3 8 2 7 11 0 10 9 19 24 23 23 5 26 11 22 40 -2 12 -49 13 -56 1z"/>
<path d="M2736 1892 c-3 -4 8 -6 25 -4 39 6 38 -16 -1 -31 -16 -6 -30 -17 -30 -24 0 -19 32 -32 55 -22 l20 9 -20 -1 c-54 -3 -62 13 -14 30 21 7 30 16 27 28 -3 19 -52 31 -62 15z"/>
<path d="M2675 1810 c-3 -6 1 -7 9 -4 18 7 21 14 7 14 -6 0 -13 -4 -16 -10z"/>
<path d="M2380 1780 c0 -7 3 -10 7 -7 3 4 3 10 0 14 -4 3 -7 0 -7 -7z"/>
<path d="M5954 2135 c-22 -16 -12 -20 16 -5 14 7 23 6 36 -7 10 -11 12 -19 6 -21 -8 -2 -8 -8 0 -21 22 -35 -16 -76 -47 -51 -22 18 -18 45 8 63 12 9 17 16 10 16 -19 1 -43 -29 -43 -53 0 -31 20 -46 58 -43 31 2 32 3 32 52 0 28 -4 55 -8 61 -13 20 -47 25 -68 9z"/>
<path d="M4782 2094 c-18 -13 -22 -24 -20 -67 l1 -52 4 45 c5 55 18 72 52 68 24 -3 26 -7 29 -55 3 -55 22 -75 22 -24 0 36 -17 83 -33 93 -18 11 -30 10 -55 -8z"/>
<path d="M4902 2065 c-2 -48 -1 -50 26 -52 15 -1 33 3 40 9 14 12 16 88 2 88 -5 0 -10 -18 -10 -39 0 -69 -45 -63 -53 7 -3 31 -4 29 -5 -13z"/>
<path d="M5016 2091 c-9 -10 -16 -25 -16 -34 0 -26 30 -49 56 -43 19 5 23 2 27 -21 2 -16 5 -2 6 29 0 31 3 62 6 70 8 21 -60 20 -79 -1z m54 -6 c15 -18 10 -45 -13 -59 -35 -21 -57 43 -23 66 16 11 22 10 36 -7z"/>
<path d="M5136 2094 c-19 -18 -21 -55 -4 -72 25 -25 78 -8 78 25 0 9 -14 13 -40 13 -43 0 -50 9 -24 31 12 10 20 10 35 1 10 -7 19 -8 19 -3 0 9 -23 21 -40 21 -5 0 -16 -7 -24 -16z m54 -59 c-7 -8 -18 -15 -25 -15 -7 0 -18 7 -25 15 -11 13 -7 15 25 15 32 0 36 -2 25 -15z"/>
<path d="M5242 2065 c-2 -45 0 -51 18 -51 23 0 27 11 6 19 -8 3 -17 23 -19 44 -3 33 -4 32 -5 -12z"/>
<path d="M5310 2100 c-11 -7 -8 -9 14 -7 40 3 44 -18 6 -32 -22 -7 -31 -16 -28 -28 4 -20 45 -30 61 -14 7 7 2 10 -18 8 -15 -1 -30 4 -32 11 -3 6 2 12 9 12 8 0 23 6 33 14 16 12 17 16 6 30 -15 18 -29 20 -51 6z"/>
<path d="M5406 2101 c-8 -13 -10 -110 -3 -118 4 -3 7 1 7 10 0 10 6 17 13 17 9 0 9 2 -1 9 -18 11 -12 77 6 73 8 -1 11 2 7 8 -8 12 -22 13 -29 1z"/>
<path d="M5459 2094 c-16 -19 5 -44 38 -44 15 0 23 -5 20 -12 -2 -7 -16 -12 -31 -11 -14 1 -24 -2 -21 -8 9 -13 55 -11 59 4 3 6 6 28 9 47 5 34 4 35 -28 37 -19 1 -39 -5 -46 -13z m45 0 c25 -10 19 -34 -9 -34 -24 0 -34 18 -18 33 8 8 8 8 27 1z"/>
<path d="M5560 2063 l0 -48 38 0 37 0 1 50 2 50 -7 -45 c-6 -42 -10 -46 -41 -41 -5 0 -10 19 -10 41 0 22 -4 40 -10 40 -5 0 -10 -21 -10 -47z"/>
<path d="M5686 2098 c-32 -18 -14 -88 23 -88 11 0 9 5 -7 16 -26 18 -29 50 -4 63 37 20 70 -27 40 -57 -9 -9 -9 -12 -1 -12 7 0 14 -12 16 -27 2 -16 5 4 5 42 l2 70 -29 1 c-16 1 -36 -3 -45 -8z"/>
<path d="M5793 2060 c0 -30 2 -43 4 -27 2 15 2 39 0 55 -2 15 -4 2 -4 -28z"/>
<path d="M5830 2061 l0 -48 38 1 37 1 1 50 c1 41 0 43 -3 10 -2 -22 -8 -44 -13 -49 -16 -16 -40 15 -40 50 0 19 -4 34 -10 34 -5 0 -10 -22 -10 -49z"/>
<path d="M5790 1980 c0 -7 3 -10 7 -7 3 4 3 10 0 14 -4 3 -7 0 -7 -7z"/>
<path d="M5180 1825 l0 -65 33 0 c43 0 65 17 73 56 8 43 -22 74 -71 74 l-35 0 0 -65z m80 40 c30 -36 4 -95 -42 -95 -15 0 -18 9 -18 55 0 51 2 55 24 55 13 0 29 -7 36 -15z"/>
<path d="M5317 1883 c-14 -13 -6 -33 16 -43 21 -11 21 -11 3 4 -15 12 -17 19 -9 27 19 19 43 2 43 -31 0 -29 -7 -34 -40 -31 -13 2 -13 0 -1 -8 30 -20 61 7 61 54 0 27 -3 30 -33 32 -19 2 -37 0 -40 -4z"/>
<path d="M5425 1881 c-8 -13 -9 -110 -1 -118 3 -3 6 1 6 10 0 9 8 21 18 26 16 10 16 10 0 11 -13 0 -18 8 -18 30 0 17 7 33 18 39 16 10 16 10 0 11 -9 0 -19 -4 -23 -9z"/>
<path d="M5487 1883 c-10 -10 -8 -43 2 -43 5 0 7 9 4 21 -5 17 -2 20 18 17 19 -2 25 -10 27 -35 3 -34 0 -36 -43 -34 -20 1 -20 1 0 -8 33 -13 55 -2 55 29 0 16 2 34 5 42 4 9 -5 14 -28 15 -19 2 -37 0 -40 -4z"/>
</g>


</svg>